<svg xmlns="http://www.w3.org/2000/svg" xmlns:xlink="http://www.w3.org/1999/xlink" viewBox="0 0 1943 714"><defs><style>.cls-1,.cls-3,.cls-5{fill:none;}.cls-2{clip-path:url(#clip-path);}.cls-3,.cls-4,.cls-5,.cls-6,.cls-7,.cls-8{stroke:#2d909c;stroke-miterlimit:10;}.cls-3{stroke-width:10px;}.cls-4,.cls-7{fill:#fff;}.cls-4,.cls-5,.cls-6{stroke-width:8px;}.cls-6,.cls-8{fill:#2d909c;}.cls-7,.cls-8{stroke-width:6px;}</style><clipPath id="clip-path" transform="translate(0 -356)"><rect class="cls-1" x="6" width="1920" height="1080"/></clipPath></defs><title>header-img</title><g id="Layer_2" data-name="Layer 2"><g id="Layer_1-2" data-name="Layer 1"><g class="cls-2"><line class="cls-3" y1="656" x2="1943" y2="656"/><path class="cls-4" d="M150.6,223H809.42a12,12,0,0,1,12,12V633a0,0,0,0,1,0,0H138.59a0,0,0,0,1,0,0V235A12,12,0,0,1,150.6,223Z"/><rect class="cls-4" x="164.04" y="246.65" width="631.95" height="357.43"/><path class="cls-4" d="M91.08,627.06H868.94a0,0,0,0,1,0,0v23.57a19.83,19.83,0,0,1-19.83,19.83H110.91a19.83,19.83,0,0,1-19.83-19.83V627.06a0,0,0,0,1,0,0Z"/><path class="cls-4" d="M436.66,626.76h86.7a0,0,0,0,1,0,0v17.73a5.25,5.25,0,0,1-5.25,5.25h-76.2a5.25,5.25,0,0,1-5.25-5.25V626.76A0,0,0,0,1,436.66,626.76Z"/><line class="cls-5" x1="183" y1="271" x2="245" y2="271"/><line class="cls-5" x1="210" y1="297.75" x2="475" y2="297.75"/><line class="cls-5" x1="210" y1="324.5" x2="383" y2="324.5"/><line class="cls-5" x1="210" y1="351.25" x2="422" y2="351.25"/><line class="cls-5" x1="183" y1="378" x2="371" y2="378"/><line class="cls-5" x1="183" y1="404.75" x2="315" y2="404.75"/><line class="cls-5" x1="210" y1="431.5" x2="365" y2="431.5"/><line class="cls-5" x1="235" y1="458.25" x2="425" y2="458.25"/><line class="cls-5" x1="235" y1="485" x2="450" y2="485"/><line class="cls-5" x1="235" y1="511.75" x2="526" y2="511.75"/><line class="cls-5" x1="235" y1="539" x2="403" y2="539"/><line class="cls-5" x1="210" y1="570" x2="501" y2="570"/><rect class="cls-4" x="940.55" y="4" width="929" height="559" rx="18" ry="18"/><rect class="cls-4" x="971.29" y="30" width="867.51" height="507" rx="18" ry="18"/><rect class="cls-6" x="1021.55" y="66" width="767" height="174"/><rect class="cls-6" x="1022" y="274" width="213" height="213"/><rect class="cls-6" x="1299" y="274" width="213" height="213"/><polygon class="cls-7" points="1454.42 655.01 1355.68 655.01 1365.41 566 1446.08 566 1454.42 655.01"/><rect class="cls-7" x="1300.05" y="642.49" width="210" height="27.81" rx="4.88" ry="4.88"/><rect class="cls-6" x="1576" y="274" width="213" height="213"/><rect class="cls-7" x="900.63" y="477" width="131" height="234" rx="9.67" ry="9.67"/><rect class="cls-7" x="909.63" y="489" width="113" height="191" rx="9.67" ry="9.67"/><circle class="cls-8" cx="966.13" cy="695.5" r="7.5"/><rect class="cls-8" x="920.13" y="504" width="92" height="37"/><rect class="cls-8" x="920.13" y="566.5" width="92" height="37"/><rect class="cls-8" x="920.13" y="629" width="92" height="37"/></g></g></g></svg>