<svg xmlns="http://www.w3.org/2000/svg" viewBox="0 0 1943 714"><defs><style>.cls-1,.cls-12,.cls-23,.cls-3{fill:none;}.cls-1,.cls-12,.cls-2,.cls-23,.cls-3,.cls-4,.cls-5,.cls-6{stroke:#2d909c;stroke-miterlimit:10;}.cls-1{stroke-width:10px;}.cls-13,.cls-16,.cls-18,.cls-2,.cls-5,.cls-7{fill:#fff;}.cls-2,.cls-3,.cls-4{stroke-width:8px;}.cls-4,.cls-6{fill:#2d909c;}.cls-5,.cls-6{stroke-width:6px;}.cls-7{font-size:90px;}.cls-13,.cls-16,.cls-18,.cls-7{font-family:Lato-Black, Lato;}.cls-8{letter-spacing:-0.03em;}.cls-9{letter-spacing:-0.02em;}.cls-10{letter-spacing:-0.02em;}.cls-11{letter-spacing:0em;}.cls-12{stroke-width:4px;}.cls-13{font-size:55px;}.cls-14{letter-spacing:-0.01em;}.cls-15{letter-spacing:-0.03em;}.cls-16{font-size:32px;}.cls-17{letter-spacing:-0.02em;}.cls-18{font-size:19px;}.cls-19{letter-spacing:-0.03em;}.cls-20{letter-spacing:-0.02em;}.cls-21{letter-spacing:-0.02em;}.cls-22{letter-spacing:0em;}.cls-23{stroke-width:3px;}</style></defs><title>header_img</title><g id="Layer_2" data-name="Layer 2"><g id="Layer_1-2" data-name="Layer 1"><line class="cls-1" y1="656" x2="1943" y2="656"/><path class="cls-2" d="M100.6,235H759.42a12,12,0,0,1,12,12V645a0,0,0,0,1,0,0H88.59a0,0,0,0,1,0,0V247A12,12,0,0,1,100.6,235Z"/><rect class="cls-2" x="114.04" y="258.65" width="631.95" height="357.43"/><path class="cls-2" d="M41.08,639.06H818.94a0,0,0,0,1,0,0v23.57a19.83,19.83,0,0,1-19.83,19.83H60.91a19.83,19.83,0,0,1-19.83-19.83V639.06a0,0,0,0,1,0,0Z"/><path class="cls-2" d="M386.66,638.76h86.7a0,0,0,0,1,0,0v17.73a5.25,5.25,0,0,1-5.25,5.25h-76.2a5.25,5.25,0,0,1-5.25-5.25V638.76A0,0,0,0,1,386.66,638.76Z"/><line class="cls-3" x1="133" y1="283" x2="195" y2="283"/><line class="cls-3" x1="160" y1="309.75" x2="425" y2="309.75"/><line class="cls-3" x1="160" y1="336.5" x2="333" y2="336.5"/><line class="cls-3" x1="160" y1="363.25" x2="372" y2="363.25"/><line class="cls-3" x1="133" y1="390" x2="321" y2="390"/><line class="cls-3" x1="133" y1="416.75" x2="265" y2="416.75"/><line class="cls-3" x1="160" y1="443.5" x2="315" y2="443.5"/><line class="cls-3" x1="185" y1="470.25" x2="375" y2="470.25"/><line class="cls-3" x1="185" y1="497" x2="400" y2="497"/><line class="cls-3" x1="185" y1="523.75" x2="476" y2="523.75"/><line class="cls-3" x1="237" y1="554" x2="405" y2="554"/><line class="cls-3" x1="210" y1="584" x2="501" y2="584"/><rect class="cls-2" x="940.55" y="4" width="929" height="559" rx="18" ry="18"/><rect class="cls-2" x="971.29" y="30" width="867.51" height="507" rx="18" ry="18"/><rect class="cls-4" x="1022.88" y="68.59" width="767" height="174"/><polygon class="cls-5" points="1454.42 655.01 1355.68 655.01 1365.41 566 1446.08 566 1454.42 655.01"/><rect class="cls-5" x="1300.05" y="642.49" width="210" height="27.81" rx="4.88" ry="4.88"/><rect class="cls-5" x="875.63" y="477" width="131" height="234" rx="9.67" ry="9.67"/><rect class="cls-5" x="884.63" y="489" width="113" height="191" rx="9.67" ry="9.67"/><circle class="cls-6" cx="941.13" cy="695.5" r="7.5"/><rect class="cls-6" x="895" y="504" width="92" height="66"/><text class="cls-7" transform="translate(1076.26 181)">LIVI<tspan class="cls-8" x="167.22" y="0">A</tspan><tspan x="228.15" y="0" xml:space="preserve"> B</tspan><tspan class="cls-9" x="309.19" y="0">O</tspan><tspan x="380.92" y="0">T</tspan><tspan class="cls-10" x="435.73" y="0">T</tspan><tspan class="cls-11" x="489.01" y="0">ONI</tspan></text><rect class="cls-4" x="1023" y="274" width="213" height="213"/><line class="cls-12" x1="1284.67" y1="274" x2="1790.67" y2="274"/><line class="cls-12" x1="1284.67" y1="487" x2="1790.67" y2="487"/><line class="cls-12" x1="1284.67" y1="460.37" x2="1790.67" y2="460.37"/><line class="cls-12" x1="1284.67" y1="433.75" x2="1790.67" y2="433.75"/><line class="cls-12" x1="1284.67" y1="407.12" x2="1790.67" y2="407.12"/><line class="cls-12" x1="1284.67" y1="380.5" x2="1790.67" y2="380.5"/><line class="cls-12" x1="1284.67" y1="353.87" x2="1790.67" y2="353.87"/><line class="cls-12" x1="1284.67" y1="327.25" x2="1790.67" y2="327.25"/><line class="cls-12" x1="1284.67" y1="300.62" x2="1790.67" y2="300.62"/><text class="cls-13" transform="translate(1036.58 342.08)">F<tspan class="cls-14" x="31.16" y="0">R</tspan><tspan x="66.6" y="0">ON</tspan><tspan class="cls-15" x="154.14" y="0">T</tspan></text><text class="cls-7" transform="translate(1034.99 419.84)">END</text><text class="cls-16" transform="translate(1036.94 459.95)">DEVE<tspan class="cls-17" x="83.78" y="0">L</tspan><tspan x="100" y="0">OPER</tspan></text><text class="cls-18" transform="translate(897.59 529)">LIVI<tspan class="cls-19" x="35.3" y="0">A</tspan><tspan x="0" y="22.8">B</tspan><tspan class="cls-20" x="12.72" y="22.8">O</tspan><tspan x="27.86" y="22.8">T</tspan><tspan class="cls-21" x="39.43" y="22.8">T</tspan><tspan class="cls-22" x="50.68" y="22.8">ONI</tspan></text><line class="cls-23" x1="892" y1="588" x2="990" y2="588"/><line class="cls-23" x1="892" y1="600.83" x2="990" y2="600.83"/><line class="cls-23" x1="892" y1="613.67" x2="990" y2="613.67"/><line class="cls-23" x1="892" y1="626.5" x2="990" y2="626.5"/><line class="cls-23" x1="892" y1="639.33" x2="990" y2="639.33"/><line class="cls-23" x1="892" y1="652.17" x2="990" y2="652.17"/><line class="cls-23" x1="892" y1="665" x2="990" y2="665"/></g></g></svg>