<svg xmlns="http://www.w3.org/2000/svg" viewBox="0 0 1943 714"><defs><style>.cls-1,.cls-3,.cls-8,.cls-9{fill:none;}.cls-1,.cls-2,.cls-3,.cls-4,.cls-5,.cls-6,.cls-8,.cls-9{stroke:#2d909c;stroke-miterlimit:10;}.cls-1{stroke-width:10px;}.cls-2,.cls-5,.cls-7{fill:#fff;}.cls-2,.cls-3,.cls-4{stroke-width:8px;}.cls-4,.cls-6{fill:#2d909c;}.cls-5,.cls-6{stroke-width:6px;}.cls-8{stroke-width:4px;}.cls-9{stroke-width:3px;}</style></defs><title>header-img_1</title><g id="Layer_2" data-name="Layer 2"><g id="Layer_1-2" data-name="Layer 1"><line class="cls-1" y1="656" x2="1943" y2="656"/><path class="cls-2" d="M100.6,235H759.42a12,12,0,0,1,12,12V645a0,0,0,0,1,0,0H88.59a0,0,0,0,1,0,0V247A12,12,0,0,1,100.6,235Z"/><rect class="cls-2" x="114.04" y="258.65" width="631.95" height="357.43"/><path class="cls-2" d="M41.08,639.06H818.94a0,0,0,0,1,0,0v23.57a19.83,19.83,0,0,1-19.83,19.83H60.91a19.83,19.83,0,0,1-19.83-19.83V639.06a0,0,0,0,1,0,0Z"/><path class="cls-2" d="M386.66,638.76h86.7a0,0,0,0,1,0,0v17.73a5.25,5.25,0,0,1-5.25,5.25h-76.2a5.25,5.25,0,0,1-5.25-5.25V638.76A0,0,0,0,1,386.66,638.76Z"/><line class="cls-3" x1="133" y1="283" x2="195" y2="283"/><line class="cls-3" x1="160" y1="309.75" x2="425" y2="309.75"/><line class="cls-3" x1="160" y1="336.5" x2="333" y2="336.5"/><line class="cls-3" x1="160" y1="363.25" x2="372" y2="363.25"/><line class="cls-3" x1="133" y1="390" x2="321" y2="390"/><line class="cls-3" x1="133" y1="416.75" x2="265" y2="416.75"/><line class="cls-3" x1="160" y1="443.5" x2="315" y2="443.5"/><line class="cls-3" x1="185" y1="470.25" x2="375" y2="470.25"/><line class="cls-3" x1="185" y1="497" x2="400" y2="497"/><line class="cls-3" x1="185" y1="523.75" x2="476" y2="523.75"/><line class="cls-3" x1="237" y1="554" x2="405" y2="554"/><line class="cls-3" x1="210" y1="584" x2="501" y2="584"/><rect class="cls-2" x="940.55" y="4" width="929" height="559" rx="18" ry="18"/><rect class="cls-2" x="971.29" y="30" width="867.51" height="507" rx="18" ry="18"/><rect class="cls-4" x="1022.88" y="68.59" width="767" height="174"/><polygon class="cls-5" points="1454.42 655.01 1355.68 655.01 1365.41 566 1446.08 566 1454.42 655.01"/><rect class="cls-5" x="1300.05" y="642.49" width="210" height="27.81" rx="4.88" ry="4.88"/><rect class="cls-5" x="875.63" y="477" width="131" height="234" rx="9.67" ry="9.67"/><rect class="cls-5" x="884.63" y="489" width="113" height="191" rx="9.67" ry="9.67"/><circle class="cls-6" cx="941.13" cy="695.5" r="7.5"/><rect class="cls-6" x="895" y="504" width="92" height="66"/><path class="cls-7" d="M1122.11,168.85V181H1082.6V115.44h15.21v53.41Z"/><path class="cls-7" d="M1145.15,181h-15.3V115.44h15.3Z"/><path class="cls-7" d="M1216.66,115.44,1190.38,181h-13.77l-26.28-65.56h12.24a5.16,5.16,0,0,1,3.19.92,5.9,5.9,0,0,1,1.85,2.36l12.69,35.1c.6,1.53,1.18,3.21,1.75,5s1.11,3.71,1.62,5.69c.42-2,.89-3.87,1.42-5.69s1.09-3.49,1.69-5l12.6-35.1a5.45,5.45,0,0,1,1.77-2.27,5,5,0,0,1,3.18-1Z"/><path class="cls-7" d="M1237.13,181h-15.3V115.44h15.3Z"/><path class="cls-7" d="M1308.64,181h-11.79a5.13,5.13,0,0,1-3.2-.92,5.81,5.81,0,0,1-1.84-2.36l-3.87-11.43H1263l-3.87,11.43a5.54,5.54,0,0,1-1.78,2.27,4.93,4.93,0,0,1-3.17,1h-11.88l25.38-65.56h15.57Zm-24.17-25.06-6.07-18q-.68-1.71-1.44-4t-1.53-5q-.67,2.75-1.44,5.08t-1.44,4l-6,17.87Z"/><path class="cls-7" d="M1355.66,115.44a45.9,45.9,0,0,1,11.57,1.26,22,22,0,0,1,7.78,3.55,13.52,13.52,0,0,1,4.39,5.58,19,19,0,0,1,1.37,7.34,14.34,14.34,0,0,1-.63,4.25,12.27,12.27,0,0,1-2,3.83,15.51,15.51,0,0,1-3.46,3.26,21.79,21.79,0,0,1-5.09,2.56q6.48,1.58,9.59,5.09a13.21,13.21,0,0,1,3.1,9.09,18.73,18.73,0,0,1-1.62,7.78,17.74,17.74,0,0,1-4.75,6.28,22.43,22.43,0,0,1-7.71,4.19,33.75,33.75,0,0,1-10.49,1.5h-26.19V115.44Zm-8.91,11.38V143h7.92a26.16,26.16,0,0,0,4.55-.36,9.47,9.47,0,0,0,3.44-1.26,5.84,5.84,0,0,0,2.16-2.47,9.36,9.36,0,0,0,.74-4,11.21,11.21,0,0,0-.58-3.9,5.58,5.58,0,0,0-1.8-2.49,7.56,7.56,0,0,0-3.09-1.35,21.08,21.08,0,0,0-4.43-.41Zm10.71,42.71a13.45,13.45,0,0,0,4.93-.77,7.82,7.82,0,0,0,3-2,6.63,6.63,0,0,0,1.49-2.74,12.12,12.12,0,0,0,.4-3.11,10.51,10.51,0,0,0-.47-3.24,5.44,5.44,0,0,0-1.62-2.43,8,8,0,0,0-3-1.53,17.7,17.7,0,0,0-4.77-.54h-10.62v16.34Z"/><path class="cls-7" d="M1456.15,148.2a35.14,35.14,0,0,1-2.46,13.23,31.23,31.23,0,0,1-17.64,17.73,39.21,39.21,0,0,1-27.87,0,31.91,31.91,0,0,1-10.78-7.09,31.5,31.5,0,0,1-6.93-10.64,36.95,36.95,0,0,1,0-26.46,31.32,31.32,0,0,1,6.93-10.62,32,32,0,0,1,10.78-7.07,36.67,36.67,0,0,1,14-2.56,36.07,36.07,0,0,1,13.92,2.59,32,32,0,0,1,10.74,7.08,31.55,31.55,0,0,1,6.9,10.62A35,35,0,0,1,1456.15,148.2Zm-15.57,0a28.42,28.42,0,0,0-1.26-8.76,18.5,18.5,0,0,0-3.63-6.59,15.57,15.57,0,0,0-5.78-4.14,19.88,19.88,0,0,0-7.78-1.44,20.25,20.25,0,0,0-7.86,1.44,15.56,15.56,0,0,0-5.8,4.14,18.49,18.49,0,0,0-3.62,6.59,31.22,31.22,0,0,0,0,17.56,18.49,18.49,0,0,0,3.62,6.59,15.41,15.41,0,0,0,5.8,4.12,20.63,20.63,0,0,0,7.86,1.41,20.25,20.25,0,0,0,7.78-1.41,15.41,15.41,0,0,0,5.78-4.12,18.5,18.5,0,0,0,3.63-6.59A28.55,28.55,0,0,0,1440.58,148.2Z"/><path class="cls-7" d="M1510.64,127.5h-18.45V181H1477V127.5h-18.45V115.44h52.11Z"/><path class="cls-7" d="M1565.45,127.5H1547V181h-15.21V127.5h-18.45V115.44h52.11Z"/><path class="cls-7" d="M1636,148.2a35.14,35.14,0,0,1-2.46,13.23,31.23,31.23,0,0,1-17.64,17.73,39.21,39.21,0,0,1-27.87,0,31.91,31.91,0,0,1-10.78-7.09,31.5,31.5,0,0,1-6.93-10.64,36.95,36.95,0,0,1,0-26.46,31.32,31.32,0,0,1,6.93-10.62,32,32,0,0,1,10.78-7.07,36.67,36.67,0,0,1,14-2.56,36.07,36.07,0,0,1,13.92,2.59,32,32,0,0,1,10.74,7.08,31.55,31.55,0,0,1,6.9,10.62A35,35,0,0,1,1636,148.2Zm-15.57,0a28.42,28.42,0,0,0-1.26-8.76,18.5,18.5,0,0,0-3.63-6.59,15.57,15.57,0,0,0-5.78-4.14,19.88,19.88,0,0,0-7.78-1.44,20.25,20.25,0,0,0-7.86,1.44,15.56,15.56,0,0,0-5.8,4.14,18.49,18.49,0,0,0-3.62,6.59,31.22,31.22,0,0,0,0,17.56,18.49,18.49,0,0,0,3.62,6.59,15.41,15.41,0,0,0,5.8,4.12,20.63,20.63,0,0,0,7.86,1.41,20.25,20.25,0,0,0,7.78-1.41,15.41,15.41,0,0,0,5.78-4.12,18.5,18.5,0,0,0,3.63-6.59A28.55,28.55,0,0,0,1620.4,148.2Z"/><path class="cls-7" d="M1702.16,115.44V181h-7.92a6.84,6.84,0,0,1-3-.56,7.33,7.33,0,0,1-2.36-2L1658,139.38q.18,1.76.24,3.39c0,1.1.07,2.13.07,3.09V181h-13.41V115.44h8a13,13,0,0,1,1.67.09,4.38,4.38,0,0,1,1.21.33,4.22,4.22,0,0,1,1,.7,12,12,0,0,1,1.12,1.22l31.19,39.37c-.15-1.26-.26-2.48-.32-3.67s-.09-2.3-.09-3.35V115.44Z"/><path class="cls-7" d="M1730.15,181h-15.3V115.44h15.3Z"/><rect class="cls-4" x="1023" y="274" width="213" height="213"/><line class="cls-8" x1="1284.67" y1="274" x2="1790.67" y2="274"/><line class="cls-8" x1="1284.67" y1="487" x2="1790.67" y2="487"/><line class="cls-8" x1="1284.67" y1="460.37" x2="1790.67" y2="460.37"/><line class="cls-8" x1="1284.67" y1="433.75" x2="1790.67" y2="433.75"/><line class="cls-8" x1="1284.67" y1="407.12" x2="1790.67" y2="407.12"/><line class="cls-8" x1="1284.67" y1="380.5" x2="1790.67" y2="380.5"/><line class="cls-8" x1="1284.67" y1="353.87" x2="1790.67" y2="353.87"/><line class="cls-8" x1="1284.67" y1="327.25" x2="1790.67" y2="327.25"/><line class="cls-8" x1="1284.67" y1="300.62" x2="1790.67" y2="300.62"/><path class="cls-7" d="M1049.81,309.17v10.14h13.69v7.18h-13.69v15.59h-9.35V302h25.79v7.15Z"/><path class="cls-7" d="M1104.39,342.08H1096a3.57,3.57,0,0,1-3.36-1.76L1086,328.69a3.11,3.11,0,0,0-1-1.08,3.21,3.21,0,0,0-1.65-.35h-2.36v14.82h-9.3V302h13a26.61,26.61,0,0,1,7.41.89,14.16,14.16,0,0,1,5,2.49,9.33,9.33,0,0,1,2.81,3.77,12.41,12.41,0,0,1,.88,4.73,12.59,12.59,0,0,1-.52,3.68,11.46,11.46,0,0,1-1.54,3.21,12,12,0,0,1-2.51,2.62,13.52,13.52,0,0,1-3.46,1.9,8.11,8.11,0,0,1,1.71,1.17,8.27,8.27,0,0,1,1.43,1.66Zm-19.74-21.23a9.6,9.6,0,0,0,3.23-.48,5.82,5.82,0,0,0,2.19-1.33,5.05,5.05,0,0,0,1.23-2,7.51,7.51,0,0,0,.39-2.46,5.14,5.14,0,0,0-1.72-4.12q-1.73-1.48-5.32-1.49h-3.74v11.88Z"/><path class="cls-7" d="M1146.39,322a21.5,21.5,0,0,1-1.5,8.08A19.15,19.15,0,0,1,1134.11,341a24,24,0,0,1-17,0,19.15,19.15,0,0,1-10.82-10.84,22.54,22.54,0,0,1,0-16.17,19.29,19.29,0,0,1,4.23-6.49,19.75,19.75,0,0,1,6.59-4.32,22.53,22.53,0,0,1,8.53-1.56,22.05,22.05,0,0,1,8.51,1.58,19.65,19.65,0,0,1,6.56,4.33,19.42,19.42,0,0,1,4.22,6.49A21.44,21.44,0,0,1,1146.39,322Zm-9.52,0a17.41,17.41,0,0,0-.77-5.35,11.28,11.28,0,0,0-2.21-4,9.61,9.61,0,0,0-3.54-2.53,12.08,12.08,0,0,0-4.75-.88,12.27,12.27,0,0,0-4.8.88,9.49,9.49,0,0,0-3.55,2.53,11.28,11.28,0,0,0-2.21,4,19,19,0,0,0,0,10.72,11.28,11.28,0,0,0,2.21,4,9.36,9.36,0,0,0,3.55,2.52,12.45,12.45,0,0,0,4.8.86,12.27,12.27,0,0,0,4.75-.86,9.48,9.48,0,0,0,3.54-2.52,11.28,11.28,0,0,0,2.21-4A17.45,17.45,0,0,0,1136.87,322Z"/><path class="cls-7" d="M1186.84,302v40.06H1182a4.16,4.16,0,0,1-1.8-.34,4.42,4.42,0,0,1-1.45-1.2l-18.89-23.89c.07.71.13,1.4.15,2.07s0,1.3,0,1.89v21.47h-8.19V302h4.89a9.35,9.35,0,0,1,1,.05,2.67,2.67,0,0,1,.74.21,2.71,2.71,0,0,1,.64.42,6.74,6.74,0,0,1,.68.75l19.06,24.06c-.09-.77-.15-1.52-.19-2.24s-.06-1.41-.06-2V302Z"/><path class="cls-7" d="M1223.39,309.39h-11.28v32.69h-9.29V309.39h-11.28V302h31.85Z"/><path class="cls-7" d="M1056.63,366v15.3h20.61v11.25h-20.61v15.62h26.91v11.7h-42.21V354.27h42.21V366Z"/><path class="cls-7" d="M1150.14,354.27v65.57h-7.92a6.91,6.91,0,0,1-2.94-.56,7.26,7.26,0,0,1-2.37-2L1106,378.21c.12,1.17.2,2.31.25,3.4s.06,2.12.06,3.09v35.14H1092.9V354.27h8a11.24,11.24,0,0,1,1.67.1,4.38,4.38,0,0,1,1.21.33,4.22,4.22,0,0,1,1,.7,12,12,0,0,1,1.12,1.22L1137.14,396c-.15-1.26-.26-2.48-.32-3.67s-.09-2.3-.09-3.35v-34.7Z"/><path class="cls-7" d="M1222.32,387a34.42,34.42,0,0,1-2.45,13.11,30.79,30.79,0,0,1-6.91,10.4,31.42,31.42,0,0,1-10.73,6.84,38.11,38.11,0,0,1-13.93,2.45h-25.47V354.27h25.47a37.7,37.7,0,0,1,13.93,2.48,31.72,31.72,0,0,1,10.73,6.84,30.57,30.57,0,0,1,6.91,10.37A34.37,34.37,0,0,1,1222.32,387Zm-15.57,0a28.55,28.55,0,0,0-1.26-8.78,18.88,18.88,0,0,0-3.62-6.64,15.75,15.75,0,0,0-5.78-4.18,19.57,19.57,0,0,0-7.79-1.47h-10.17v42.17h10.17a19.75,19.75,0,0,0,7.79-1.46,15.78,15.78,0,0,0,5.78-4.19,18.79,18.79,0,0,0,3.62-6.64A28.7,28.7,0,0,0,1206.75,387Z"/><path class="cls-7" d="M1060.35,448.29a12.23,12.23,0,0,1-.87,4.66,10.9,10.9,0,0,1-2.46,3.7,11,11,0,0,1-3.81,2.43,13.56,13.56,0,0,1-5,.87h-9V436.64h9a13.35,13.35,0,0,1,5,.88A11.31,11.31,0,0,1,1057,440a10.76,10.76,0,0,1,2.46,3.69A12.18,12.18,0,0,1,1060.35,448.29Zm-5.53,0a10,10,0,0,0-.45-3.12,6.63,6.63,0,0,0-1.29-2.36,5.6,5.6,0,0,0-2.06-1.49,6.91,6.91,0,0,0-2.77-.52h-3.61v15h3.61a6.91,6.91,0,0,0,2.77-.52,5.6,5.6,0,0,0,2.06-1.49,6.63,6.63,0,0,0,1.29-2.36A10.15,10.15,0,0,0,1054.82,448.29Z"/><path class="cls-7" d="M1069,440.8v5.44h7.33v4H1069v5.55h9.57V460h-15V436.64h15v4.16Z"/><path class="cls-7" d="M1102.8,436.64,1093.46,460h-4.9l-9.35-23.31h4.36a1.79,1.79,0,0,1,1.13.33,2,2,0,0,1,.66.84l4.51,12.48c.21.54.42,1.14.63,1.78s.39,1.32.57,2c.15-.7.32-1.37.51-2s.38-1.24.59-1.78l4.49-12.48a1.83,1.83,0,0,1,.63-.81,1.76,1.76,0,0,1,1.13-.36Z"/><path class="cls-7" d="M1110.08,440.8v5.44h7.33v4h-7.33v5.55h9.57V460h-15V436.64h15v4.16Z"/><path class="cls-7" d="M1137,455.63V460h-14V436.64h5.41v19Z"/><path class="cls-7" d="M1162.08,448.29a12.55,12.55,0,0,1-.87,4.7,11.38,11.38,0,0,1-2.46,3.79,11.15,11.15,0,0,1-3.81,2.51,13.83,13.83,0,0,1-9.92,0,11.23,11.23,0,0,1-3.83-2.51,11.38,11.38,0,0,1-2.46-3.79,13.16,13.16,0,0,1,0-9.41,11.1,11.1,0,0,1,2.46-3.77,11.4,11.4,0,0,1,3.83-2.52,13.23,13.23,0,0,1,5-.91,13,13,0,0,1,5,.92,11.62,11.62,0,0,1,3.81,2.52,11.24,11.24,0,0,1,2.46,3.78A12.5,12.5,0,0,1,1162.08,448.29Zm-5.54,0a10.4,10.4,0,0,0-.44-3.12,6.62,6.62,0,0,0-1.29-2.34,5.55,5.55,0,0,0-2.06-1.47,7.09,7.09,0,0,0-2.77-.51,7.23,7.23,0,0,0-2.79.51,5.55,5.55,0,0,0-2.06,1.47,6.62,6.62,0,0,0-1.29,2.34,11,11,0,0,0,0,6.24,6.58,6.58,0,0,0,1.29,2.35,5.42,5.42,0,0,0,2.06,1.46,7.23,7.23,0,0,0,2.79.51,7.09,7.09,0,0,0,2.77-.51,5.42,5.42,0,0,0,2.06-1.46,6.58,6.58,0,0,0,1.29-2.35A10.36,10.36,0,0,0,1156.54,448.29Z"/><path class="cls-7" d="M1173.49,436.64a13.55,13.55,0,0,1,4.23.58,8.13,8.13,0,0,1,2.91,1.61,6.25,6.25,0,0,1,1.69,2.42,8.2,8.2,0,0,1,.54,3,8.77,8.77,0,0,1-.56,3.21,6.32,6.32,0,0,1-1.71,2.49,8,8,0,0,1-2.92,1.62,13.34,13.34,0,0,1-4.18.59h-2.82V460h-5.41V436.64Zm0,11.44a3.9,3.9,0,0,0,3.72-5.28,3,3,0,0,0-.72-1.13,3.37,3.37,0,0,0-1.24-.73,5.41,5.41,0,0,0-1.76-.25h-2.82v7.39Z"/><path class="cls-7" d="M1191.05,440.8v5.44h7.33v4h-7.33v5.55h9.57V460h-15V436.64h15v4.16Z"/><path class="cls-7" d="M1223,460h-4.89a2.09,2.09,0,0,1-2-1l-3.87-6.77a1.76,1.76,0,0,0-.61-.63,1.81,1.81,0,0,0-1-.2h-1.37V460H1204V436.64h7.58a15.48,15.48,0,0,1,4.32.52,8.1,8.1,0,0,1,2.91,1.45,5.44,5.44,0,0,1,1.64,2.19,7.27,7.27,0,0,1,.51,2.75,7.55,7.55,0,0,1-.3,2.15,7,7,0,0,1-.9,1.86,6.81,6.81,0,0,1-1.46,1.53,7.75,7.75,0,0,1-2,1.1,5,5,0,0,1,1,.68,4.38,4.38,0,0,1,.83,1Zm-11.49-12.35a5.44,5.44,0,0,0,1.88-.28,3.46,3.46,0,0,0,1.28-.78,2.91,2.91,0,0,0,.72-1.16,4.42,4.42,0,0,0,.22-1.43,3,3,0,0,0-1-2.4,4.65,4.65,0,0,0-3.1-.86h-2.17v6.91Z"/><line class="cls-9" x1="892" y1="588" x2="990" y2="588"/><line class="cls-9" x1="892" y1="600.83" x2="990" y2="600.83"/><line class="cls-9" x1="892" y1="613.67" x2="990" y2="613.67"/><line class="cls-9" x1="892" y1="626.5" x2="990" y2="626.5"/><line class="cls-9" x1="892" y1="639.33" x2="990" y2="639.33"/><line class="cls-9" x1="892" y1="652.17" x2="990" y2="652.17"/><line class="cls-9" x1="892" y1="665" x2="990" y2="665"/><path class="cls-7" d="M918,523.05a.91.91,0,0,1-.12.49,1.18,1.18,0,0,1-.31.32,1.23,1.23,0,0,1-.38.19,1.21,1.21,0,0,1-.34.07,1.93,1.93,0,0,0-1.66.7,3.11,3.11,0,0,0-.54,1.94,18.46,18.46,0,0,0,.09,1.87c0,.59.11,1.16.17,1.7s.11,1.09.17,1.62.08,1.06.08,1.6a4.76,4.76,0,0,1-.18,1.31,3.75,3.75,0,0,1-.55,1.16,3.83,3.83,0,0,1-.91.93,4.1,4.1,0,0,1-1.24.61,4.12,4.12,0,0,1,1.24.62,4.05,4.05,0,0,1,.91.94,3.7,3.7,0,0,1,.55,1.17,4.74,4.74,0,0,1,.18,1.3c0,.54,0,1.08-.08,1.61s-.11,1.06-.17,1.61-.12,1.11-.17,1.7a18.31,18.31,0,0,0-.09,1.87,3.09,3.09,0,0,0,.54,1.94,1.93,1.93,0,0,0,1.66.71,1.16,1.16,0,0,1,.34.06,1.23,1.23,0,0,1,.38.19,1.18,1.18,0,0,1,.31.32.91.91,0,0,1,.12.49v2.41H917a10.22,10.22,0,0,1-3.28-.46,6,6,0,0,1-2.26-1.31,5.27,5.27,0,0,1-1.31-2.05,7.86,7.86,0,0,1-.43-2.64,15.4,15.4,0,0,1,.1-1.66c.07-.55.14-1.1.23-1.64s.16-1.08.22-1.62a12.38,12.38,0,0,0,.1-1.6,3.29,3.29,0,0,0-.41-1.74,1.66,1.66,0,0,0-1.5-.65V536a2,2,0,0,0,.91-.18,1.5,1.5,0,0,0,.59-.49,2.09,2.09,0,0,0,.31-.76,4.1,4.1,0,0,0,.1-1,12.38,12.38,0,0,0-.1-1.6c-.06-.54-.14-1.08-.22-1.62s-.16-1.09-.23-1.64a15.25,15.25,0,0,1-.1-1.66,8,8,0,0,1,.43-2.65,5.09,5.09,0,0,1,1.31-2,6,6,0,0,1,2.26-1.31,10.22,10.22,0,0,1,3.28-.46H918Z"/><path class="cls-7" d="M937.19,543.81v4.86H921.38V522.44h6.09v21.37Z"/><path class="cls-7" d="M949.93,522.44a18.23,18.23,0,0,1,4.63.51,8.54,8.54,0,0,1,3.11,1.42,5.32,5.32,0,0,1,1.75,2.23,7.43,7.43,0,0,1,.55,2.93,5.64,5.64,0,0,1-.25,1.7,4.85,4.85,0,0,1-.79,1.53,6,6,0,0,1-1.39,1.31,8.55,8.55,0,0,1-2,1,7.25,7.25,0,0,1,3.83,2,5.28,5.28,0,0,1,1.25,3.63,7.55,7.55,0,0,1-.65,3.12,7.12,7.12,0,0,1-1.9,2.51,9,9,0,0,1-3.09,1.67,13.15,13.15,0,0,1-4.19.61H940.28V522.44ZM946.37,527v6.47h3.16a10,10,0,0,0,1.82-.14,3.7,3.7,0,0,0,1.38-.5,2.3,2.3,0,0,0,.86-1,3.7,3.7,0,0,0,.3-1.59,4.57,4.57,0,0,0-.23-1.55,2.25,2.25,0,0,0-.72-1,3,3,0,0,0-1.24-.54,8.35,8.35,0,0,0-1.77-.16Zm4.28,17.08a5.25,5.25,0,0,0,2-.31,3.14,3.14,0,0,0,1.2-.79,2.62,2.62,0,0,0,.59-1.1,4.74,4.74,0,0,0,.16-1.24,4.08,4.08,0,0,0-.19-1.3,2.12,2.12,0,0,0-.64-1,3.17,3.17,0,0,0-1.22-.61,7.21,7.21,0,0,0-1.91-.22h-4.24v6.54Z"/><path class="cls-7" d="M972.2,539.13a1.66,1.66,0,0,0-1.5.65,3.29,3.29,0,0,0-.41,1.74,12.38,12.38,0,0,0,.1,1.6c.06.54.14,1.08.22,1.62s.16,1.09.23,1.64a15.4,15.4,0,0,1,.1,1.66,7.86,7.86,0,0,1-.43,2.64,5.27,5.27,0,0,1-1.31,2.05,6,6,0,0,1-2.26,1.31,10.22,10.22,0,0,1-3.28.46h-.93v-2.41a.91.91,0,0,1,.12-.49,1.18,1.18,0,0,1,.31-.32,1.23,1.23,0,0,1,.38-.19,1.16,1.16,0,0,1,.34-.06,1.93,1.93,0,0,0,1.66-.71,3.09,3.09,0,0,0,.54-1.94,18.31,18.31,0,0,0-.09-1.87c0-.59-.11-1.16-.17-1.7s-.11-1.09-.17-1.61-.08-1.07-.08-1.61a4.74,4.74,0,0,1,.18-1.3,3.7,3.7,0,0,1,.55-1.17,4.05,4.05,0,0,1,.91-.94,4.12,4.12,0,0,1,1.24-.62,4.1,4.1,0,0,1-1.24-.61,3.83,3.83,0,0,1-.91-.93,3.75,3.75,0,0,1-.55-1.16,4.76,4.76,0,0,1-.18-1.31c0-.54,0-1.08.08-1.6s.11-1.07.17-1.62.12-1.11.17-1.7a18.46,18.46,0,0,0,.09-1.87,3.11,3.11,0,0,0-.54-1.94,1.93,1.93,0,0,0-1.66-.7,1.21,1.21,0,0,1-.34-.07,1.23,1.23,0,0,1-.38-.19,1.18,1.18,0,0,1-.31-.32.91.91,0,0,1-.12-.49v-2.41h.93a10.22,10.22,0,0,1,3.28.46,6,6,0,0,1,2.26,1.31,5.09,5.09,0,0,1,1.31,2,8,8,0,0,1,.43,2.65,15.25,15.25,0,0,1-.1,1.66c-.07.55-.14,1.1-.23,1.64s-.16,1.08-.22,1.62a12.38,12.38,0,0,0-.1,1.6,4.1,4.1,0,0,0,.1,1,2.09,2.09,0,0,0,.31.76,1.5,1.5,0,0,0,.59.49,2,2,0,0,0,.91.18Z"/></g></g></svg>