<svg xmlns="http://www.w3.org/2000/svg" xmlns:xlink="http://www.w3.org/1999/xlink" viewBox="0 0 1373.11 605.31"><defs><style>.cls-1,.cls-14,.cls-24,.cls-36,.cls-40{fill:none;}.cls-2{fill:#d80919;}.cls-3{fill:#d3c7c8;}.cls-21,.cls-4{fill:#f09a35;}.cls-24,.cls-4{stroke:#d8822b;}.cls-24,.cls-26,.cls-36,.cls-4,.cls-40,.cls-43,.cls-5,.cls-50{stroke-miterlimit:10;}.cls-37,.cls-5{fill:#efecea;}.cls-40,.cls-5{stroke:#d3d1cf;}.cls-6{clip-path:url(#clip-path);}.cls-7{fill:#b3b3b3;}.cls-8{fill:#d8aa2a;}.cls-9{fill:#f0c948;}.cls-10{fill:#fbb03b;}.cls-11{fill:#de5f6e;}.cls-12{fill:#e6e6e6;}.cls-13{fill:#ccc;}.cls-14{stroke:#b3b3b3;stroke-linecap:round;stroke-linejoin:round;}.cls-14,.cls-36{stroke-width:0.25px;}.cls-15,.cls-50{fill:#fff;}.cls-16{clip-path:url(#clip-path-2);}.cls-17{fill:#f42740;}.cls-18{fill:#869e40;}.cls-19{fill:#670f7c;}.cls-20{fill:#d8cad0;}.cls-22{clip-path:url(#clip-path-3);}.cls-23{fill:#d8822b;}.cls-25{clip-path:url(#clip-path-4);}.cls-26{fill:#f3f2bc;}.cls-26,.cls-50{stroke:#869e40;}.cls-26,.cls-43{stroke-width:7px;}.cls-27{clip-path:url(#clip-path-5);}.cls-28{font-size:48px;font-family:Roboto-Thin, Roboto;letter-spacing:0.1em;}.cls-29{letter-spacing:-0.02em;}.cls-30,.cls-35{font-size:50px;font-family:HoneyScript-Light, Honey Script;}.cls-31{clip-path:url(#clip-path-6);}.cls-32{clip-path:url(#clip-path-7);}.cls-33{clip-path:url(#clip-path-8);}.cls-34{clip-path:url(#clip-path-9);}.cls-35{fill:#303030;}.cls-36{stroke:#303030;}.cls-38{clip-path:url(#clip-path-10);}.cls-39{fill:#d3d1cf;}.cls-41{fill:#9a9b98;}.cls-42{fill:#dbd1d2;}.cls-43{fill:#f4f4f2;stroke:#9a9b98;}.cls-44{fill:#b2b1ad;}.cls-45{fill:#dddad7;}.cls-46{fill:#bab3ae;}.cls-47{clip-path:url(#clip-path-11);}.cls-48{fill:#c6b5b9;}.cls-49{fill:#7a787a;}.cls-50{stroke-width:10px;}.cls-51{clip-path:url(#clip-path-12);}.cls-52{clip-path:url(#clip-path-13);}</style><clipPath id="clip-path" transform="translate(-32.54 -41.54)"><rect class="cls-1" width="1460.48" height="667.19"/></clipPath><clipPath id="clip-path-2" transform="translate(-32.54 -41.54)"><ellipse id="_Ellipse_" data-name="&lt;Ellipse&gt;" class="cls-2" cx="302.76" cy="526.71" rx="27.12" ry="22.38" transform="translate(-0.65 0.37) rotate(-0.07)"/></clipPath><clipPath id="clip-path-3" transform="translate(-32.54 -41.54)"><path id="_Clipping_Path_" data-name="&lt;Clipping Path&gt;" class="cls-4" d="M75.91,598.34c-5,24.69-13.81,45.74-19.65,47.93-7.27-6.72-11.46-24.43-12.9-50.73C41.92,569.4,50,550.76,63.15,551.72S81.14,572.69,75.91,598.34Z"/></clipPath><clipPath id="clip-path-4" transform="translate(-32.54 -41.54)"><path id="_Clipping_Path_2" data-name="&lt;Clipping Path&gt;" class="cls-4" d="M181,178c-2.18,10.68-6,19.79-8.5,20.74-3.15-2.91-5-10.57-5.59-22s2.85-19.37,8.57-19S183.25,166.86,181,178Z"/></clipPath><clipPath id="clip-path-5" transform="translate(-32.54 -41.54)"><ellipse id="_Ellipse_2" data-name="&lt;Ellipse&gt;" class="cls-2" cx="211.65" cy="246.73" rx="11.2" ry="13.57" transform="translate(-68.04 412.38) rotate(-80.01)"/></clipPath><clipPath id="clip-path-6" transform="translate(-32.54 -41.54)"><path id="_Clipping_Path_3" data-name="&lt;Clipping Path&gt;" class="cls-4" d="M1056.71,506.79c-1.79,8.8-4.92,16.3-7,17.08-2.59-2.39-4.09-8.71-4.6-18.08s2.35-16,7.05-15.62S1058.58,497.65,1056.71,506.79Z"/></clipPath><clipPath id="clip-path-7" transform="translate(-32.54 -41.54)"><ellipse id="_Ellipse_3" data-name="&lt;Ellipse&gt;" class="cls-2" cx="1081.96" cy="563.43" rx="9.22" ry="11.17" transform="translate(339.46 1531.3) rotate(-80.01)"/></clipPath><clipPath id="clip-path-8" transform="translate(-32.54 -41.54)"><path id="_Clipping_Path_4" data-name="&lt;Clipping Path&gt;" class="cls-4" d="M532.76,108.61c-2.18,10.68-6,19.79-8.51,20.74-3.14-2.91-5-10.58-5.58-22s2.85-19.38,8.56-19S535,97.51,532.76,108.61Z"/></clipPath><clipPath id="clip-path-9" transform="translate(-32.54 -41.54)"><ellipse id="_Ellipse_4" data-name="&lt;Ellipse&gt;" class="cls-2" cx="563.41" cy="177.37" rx="11.2" ry="13.57" transform="translate(291.03 701.49) rotate(-80.01)"/></clipPath><clipPath id="clip-path-10" transform="translate(-32.54 -41.54)"><path id="_Clipping_Path_5" data-name="&lt;Clipping Path&gt;" class="cls-5" d="M884.52,108.61c-2.18,10.68-6,19.79-8.5,20.74-3.15-2.91-5-10.58-5.59-22s2.86-19.38,8.57-19S886.79,97.51,884.52,108.61Z"/></clipPath><clipPath id="clip-path-11" transform="translate(-32.54 -41.54)"><ellipse id="_Ellipse_5" data-name="&lt;Ellipse&gt;" class="cls-3" cx="915.18" cy="177.37" rx="11.2" ry="13.57" transform="translate(581.8 1047.93) rotate(-80.01)"/></clipPath><clipPath id="clip-path-12" transform="translate(-32.54 -41.54)"><path id="_Clipping_Path_6" data-name="&lt;Clipping Path&gt;" class="cls-4" d="M1285,129.49c-2.1,10.28-5.75,19-8.19,20-3-2.8-4.77-10.18-5.37-21.13s2.75-18.65,8.24-18.25S1287.13,118.81,1285,129.49Z"/></clipPath><clipPath id="clip-path-13" transform="translate(-32.54 -41.54)"><ellipse id="_Ellipse_6" data-name="&lt;Ellipse&gt;" class="cls-2" cx="1314.45" cy="195.66" rx="10.77" ry="13.06" transform="translate(893.82 1456.27) rotate(-80.01)"/></clipPath></defs><title>weekly-logos</title><g id="Layer_2" data-name="Layer 2"><g id="Layer_1-2" data-name="Layer 1"><g class="cls-6"><ellipse class="cls-7" cx="377.03" cy="599.56" rx="30.75" ry="20.1" transform="translate(-363.16 528.64) rotate(-55.46)"/><path class="cls-7" d="M391.3,584.22l-5.2-3.58,62.53-93c1-1.44,4.12-1.3,5.55-.31h0c1.44,1,2.95,3.84,2,5.27Z" transform="translate(-32.54 -41.54)"/><path class="cls-8" d="M648.07,456.44h70.84a5.67,5.67,0,0,1,5.67,5.67v95.77a5.67,5.67,0,0,1-5.67,5.67H648.07a0,0,0,0,1,0,0V456.44A0,0,0,0,1,648.07,456.44Z"/><path class="cls-8" d="M644.05,456.44h13.75a0,0,0,0,1,0,0v121a0,0,0,0,1,0,0H644.05a8.5,8.5,0,0,1-8.5-8.5V464.95A8.5,8.5,0,0,1,644.05,456.44Z"/><path class="cls-9" d="M651,470.28h70.84a5.67,5.67,0,0,1,5.67,5.67v95.77a5.67,5.67,0,0,1-5.67,5.67H651a0,0,0,0,1,0,0V470.28A0,0,0,0,1,651,470.28Z"/><rect class="cls-10" x="664.26" y="493.93" width="50.08" height="4.17"/><rect class="cls-10" x="670.52" y="503.67" width="37.56" height="3.48"/><circle class="cls-11" cx="689.3" cy="544.88" r="23.13"/><path class="cls-12" d="M734.58,591.91c-3.45,6.78-10.9,12.12-19.42,7.78-6.79-3.45-9.35-19.69-5.9-26.47s12.33-6.57,19.24-.27C738,573.64,738,585.13,734.58,591.91Z" transform="translate(-32.54 -41.54)"/><rect class="cls-13" x="707" y="596.05" width="19.12" height="4.53" transform="translate(316.77 -301.47) rotate(26.97)"/><path class="cls-14" d="M728.26,594.53a19.27,19.27,0,0,0,3.7-10.12,18.3,18.3,0,0,0-.22-4" transform="translate(-32.54 -41.54)"/><path class="cls-14" d="M725.63,592.15a19.14,19.14,0,0,0,3.7-10.12,17.66,17.66,0,0,0-.21-4" transform="translate(-32.54 -41.54)"/><path class="cls-15" d="M683,501.4a5.55,5.55,0,0,0-.82.06,7.72,7.72,0,0,0-.83-.06c-4,0-7.18,2.33-7.18,5.21s3.21,5.22,7.18,5.22c.28,0,.55,0,.83-.06a7.36,7.36,0,0,0,.82.06h67.51V501.4Z" transform="translate(-32.54 -41.54)"/><ellipse id="_Ellipse_7" data-name="&lt;Ellipse&gt;" class="cls-2" cx="302.76" cy="526.71" rx="27.12" ry="22.38" transform="translate(-33.2 -41.17) rotate(-0.07)"/><g class="cls-16"><path class="cls-2" d="M246.42,497.06q4.88,10,10.14,19.93" transform="translate(-32.54 -41.54)"/><path class="cls-2" d="M239.51,494.66l15.33,15.53" transform="translate(-32.54 -41.54)"/><path class="cls-2" d="M192.34,500.22a147.24,147.24,0,0,0,30.71,30.65c1.55,1.15,3-1.45,1.51-2.59a143,143,0,0,1-29.63-29.58c-1.14-1.53-3.75,0-2.59,1.52Z" transform="translate(-32.54 -41.54)"/><path class="cls-17" d="M315.18,519.46c2.65.94,3.73,3.82,4.63,6.23a3.09,3.09,0,0,0,3.69,2.1,3,3,0,0,0,2.09-3.69c-1.72-4.62-3.92-8.69-8.81-10.42-3.65-1.29-5.22,4.5-1.6,5.78Z" transform="translate(-32.54 -41.54)"/></g><path class="cls-18" d="M303.7,505.59a12.77,12.77,0,0,0,1.25-6.93l-2.8.75a15.36,15.36,0,0,1,1.11,2.87,9,9,0,0,1,.33,1.45l0,.29a.9.9,0,0,1-.56,1l1.1-1.45a5,5,0,0,1-1.86.43c-1.93.06-1.93,3.06,0,3a7.39,7.39,0,0,0,2.66-.54,1.59,1.59,0,0,0,1.1-1.44,2.37,2.37,0,0,0-3.85-2,2.48,2.48,0,0,0,.94,4.24c1.93.57,3.38-1.07,3.47-2.87.11-2.21-.91-4.56-1.87-6.48-.64-1.28-2.95-.73-2.79.76a9.92,9.92,0,0,1-.84,5.42c-.82,1.73,1.77,3.26,2.59,1.51Z" transform="translate(-32.54 -41.54)"/><path class="cls-18" d="M305.23,507.53a10.09,10.09,0,0,1,7.59,2.14c1.53,1.18,3-1.43,1.51-2.59a13,13,0,0,0-9.89-2.45c-1.91.27-1.1,3.16.79,2.9Z" transform="translate(-32.54 -41.54)"/><path class="cls-18" d="M306,506.71a69.23,69.23,0,0,0,7.12-1.78c1.84-.56,1.06-3.46-.79-2.89a70.07,70.07,0,0,1-7.13,1.78c-1.89.37-1.09,3.26.8,2.89Z" transform="translate(-32.54 -41.54)"/><path class="cls-18" d="M303,503.88a7.35,7.35,0,0,1-5.75-2.45c-1.31-1.43-3.43.7-2.12,2.12a10.3,10.3,0,0,0,7.87,3.33c1.93-.05,1.94-3.05,0-3Z" transform="translate(-32.54 -41.54)"/><path class="cls-18" d="M302.61,507.64a4.13,4.13,0,0,1,2.76,2.75c.57,1.84,3.46,1.05,2.89-.8a7.22,7.22,0,0,0-4.86-4.84c-1.85-.56-2.64,2.33-.79,2.89Z" transform="translate(-32.54 -41.54)"/><path class="cls-18" d="M301.16,505.05c-.33.67-2.87.55-3.57.68a20.75,20.75,0,0,0-4.13,1.34c-1.77.75-.24,3.34,1.51,2.59a21.08,21.08,0,0,1,5.75-1.32,3.54,3.54,0,0,0,3-1.77c.87-1.72-1.72-3.24-2.59-1.52Z" transform="translate(-32.54 -41.54)"/><path class="cls-19" d="M550.59,491.6c-10.3-5.6-22,7.75-25.39,19s-2.48,23.49-6.49,34.51c-6.76,18.57-40.58,24.72-39.11,49.76,1,17,12.37,24.86,19.84,31.6,17.25,12,31.82,2.6,42.5-6.93,7.4-7.87,7.4-7.87,10.5-21.07,2.89-18.15,5.85-34.91,7-53.25.69-10.76,1.7-21.08.51-32.75C557.82,500,560.07,496.75,550.59,491.6Z" transform="translate(-32.54 -41.54)"/><path class="cls-19" d="M551.35,490.31c-10.73-5.09-20.49,4.92-25.1,13.82-7,13.51-2.9,30.4-10.41,43.55-9.41,16.5-34.36,20.89-37.49,41.76-1.69,11.28,3.48,22.23,11.24,30.11,8.06,8.18,17.71,15.42,29.86,13.8,11.17-1.49,22-9.7,28.66-18.51,2.59-3.42,3.69-7.35,4.7-11.46,2.05-8.34,3.12-17,4.4-25.46,2.88-19,5.35-38.62,4.75-57.87a104.93,104.93,0,0,0-2.19-20c-1.1-4.77-4.28-7.42-8.42-9.75a1.5,1.5,0,0,0-1.52,2.59c4,2.27,6.49,4.58,7.28,9.23A131.79,131.79,0,0,1,559,520.05c.46,14.69-1,29.77-2.85,44.33-1.74,13.82-3.2,28.29-7.09,41.68-2.63,9-11,15.93-18.95,20.41-5.42,3.06-11.58,4.84-17.82,3.85-6.95-1.1-12.19-5.2-17.24-9.76-8.13-7.34-14.29-16.6-13.94-28,.57-18.67,22.16-25.95,33.13-37.78,7.76-8.36,8.56-19.54,9.92-30.37,1-7.68,2.25-15.28,6.51-21.87,4-6.15,11.33-13.37,19.2-9.64C551.57,493.72,553.09,491.13,551.35,490.31Z" transform="translate(-32.54 -41.54)"/><path class="cls-18" d="M543.84,487.82l-11.5,5.57c-1.68.82-.37,2.95,1.15,2.74a25,25,0,0,0,11.18-4.41c1.57-1.11.07-3.71-1.51-2.59a23.15,23.15,0,0,1-10.47,4.11l1.16,2.74,11.51-5.57c1.73-.85.21-3.43-1.52-2.59Z" transform="translate(-32.54 -41.54)"/><path class="cls-18" d="M543.78,489.39a21.77,21.77,0,0,1-3.88,9.52l2.74.36a4.19,4.19,0,0,1,2.14-5.32c1.73-.86.21-3.45-1.51-2.59a7.14,7.14,0,0,0-3.52,8.7,1.52,1.52,0,0,0,2.74.36,23.6,23.6,0,0,0,4.18-10.23c.29-1.89-2.6-2.7-2.89-.8Z" transform="translate(-32.54 -41.54)"/><path class="cls-18" d="M544.72,490.38a12.41,12.41,0,0,1,4.06,12.44h2.9a33.16,33.16,0,0,0-5.6-11.4c-1.15-1.52-3.75,0-2.59,1.51a30.85,30.85,0,0,1,5.29,10.69,1.52,1.52,0,0,0,2.9,0,15.47,15.47,0,0,0-4.84-15.37c-1.44-1.26-3.57.85-2.12,2.13Z" transform="translate(-32.54 -41.54)"/><path class="cls-18" d="M547.8,492.23c2.44,3.79,4.86,7.6,7.32,11.38,1.15,1.78,3,3.58,4.94,1.45s0-4.43-1.44-6.07a84.79,84.79,0,0,0-9-8.84c-1.46-1.24-3.59.87-2.12,2.12,2,1.68,3.9,3.43,5.72,5.28.69.69,1.36,1.4,2,2.11a21.24,21.24,0,0,0,2.5,3c1.42,1-.86-1.87-1.12-2.28l-1.69-2.62-4.5-7c-1-1.62-3.63-.12-2.59,1.51Z" transform="translate(-32.54 -41.54)"/><path class="cls-18" d="M547.79,491.81c4.55-.53,6.81,4.49,9.63,7.17,2.21,2.09,4.58,3.21,7.64,2.79,1.9-.26,1.09-3.15-.8-2.89-4.19.57-6.72-4.71-9.26-7.14-2-1.94-4.35-3.26-7.21-2.93-1.9.23-1.92,3.23,0,3Z" transform="translate(-32.54 -41.54)"/><path class="cls-18" d="M552.07,488.72a6.58,6.58,0,0,1,.52-3.5H549.7a2.39,2.39,0,0,1-1.77,2.93,1.54,1.54,0,0,0-1.5,1.5,1.5,1.5,0,0,0,1.5,1.5,5.41,5.41,0,0,0,4.66-6.73,1.51,1.51,0,0,0-2.89,0,9.44,9.44,0,0,0-.52,5.1,1.5,1.5,0,0,0,1.84,1,1.53,1.53,0,0,0,1.05-1.84Z" transform="translate(-32.54 -41.54)"/><path class="cls-20" d="M150.74,529.45c-2.7,10.94-5.1,12.76-6.9,25.07-1.47,10.07-1.52,20.93,3.62,29.72,3.81,6.49,10.07,11.17,16.49,15.09,15.4,9.42,33.11,15.66,51.17,15.53,13.86-.11,29.37-5.44,34.75-18.21,3.73-8.85,1.48-19.5-4.25-27.21S231.14,556.7,222,553.83c-5.82-1.82-12-2.9-17.26-6-6.79-3.93-11.38-10.66-16.28-16.79s-10.88-12.15-18.59-13.59S152.79,520.9,150.74,529.45Z" transform="translate(-32.54 -41.54)"/><path class="cls-11" d="M155.38,533.09c-2.43,9.85-4.6,11.49-6.22,22.57-1.32,9.07-1.36,18.86,3.27,26.77,3.42,5.85,9.06,10.06,14.84,13.59,13.87,8.49,29.82,14.1,46.08,14,12.48-.09,26.44-4.89,31.29-16.39,3.36-8,1.34-17.56-3.82-24.51s-13-11.47-21.3-14.05c-5.24-1.65-10.79-2.61-15.54-5.36-6.12-3.54-10.25-9.6-14.67-15.12s-9.79-10.94-16.74-12.24S157.23,525.39,155.38,533.09Z" transform="translate(-32.54 -41.54)"/><circle class="cls-20" cx="137.75" cy="499.79" r="4.75"/><path id="_Clipping_Path_7" data-name="&lt;Clipping Path&gt;" class="cls-21" d="M75.91,598.34c-5,24.69-13.81,45.74-19.65,47.93-7.27-6.72-11.46-24.43-12.9-50.73C41.92,569.4,50,550.76,63.15,551.72S81.14,572.69,75.91,598.34Z" transform="translate(-32.54 -41.54)"/><g class="cls-22"><path class="cls-23" d="M48.91,450.81A59.73,59.73,0,0,0,115.34,469c1.8-.65,1-3.55-.8-2.9A56.82,56.82,0,0,1,51,448.69c-1.23-1.49-3.34.64-2.12,2.12Z" transform="translate(-32.54 -41.54)"/><path class="cls-23" d="M53.58,573a30.52,30.52,0,0,0,18.53,2.61c.47-.08.27-.81-.2-.73A29.56,29.56,0,0,1,54,572.36c-.44-.21-.82.44-.38.65Z" transform="translate(-32.54 -41.54)"/><path class="cls-23" d="M47.72,582.86a39.07,39.07,0,0,0,25.6,4.67c.47-.07.27-.8-.2-.72a38.18,38.18,0,0,1-25-4.6c-.42-.23-.8.41-.38.65Z" transform="translate(-32.54 -41.54)"/><path class="cls-23" d="M48.34,596.69A23.84,23.84,0,0,0,68.52,600a.38.38,0,0,0-.2-.73A23,23,0,0,1,48.72,596c-.4-.27-.78.38-.38.65Z" transform="translate(-32.54 -41.54)"/><path class="cls-23" d="M50.89,611.62a34.48,34.48,0,0,0,12.55,2.57.38.38,0,0,0,0-.75,34,34,0,0,1-12.35-2.55c-.45-.18-.64.55-.2.73Z" transform="translate(-32.54 -41.54)"/><path class="cls-23" d="M61.37,554.89c2.05.73,8.38,4,8.74-.32.14-1.67-1.33-2.36-2.74-2.49-.9-.08-1.81-.11-2.71-.16a19.83,19.83,0,0,0-3.26-.2c-1.51.16-2.12,1.89-1.75,3.22A4,4,0,0,0,63,557.49c3.07.56,6.9-.9,6.14-4.65-.39-1.89-3.28-1.09-2.89.79.18.89-1.18,1-1.75,1a5,5,0,0,1-1.14-.15c-.32-.08-.75-.44-.92-.23l-1.06.44,3,.18c.35,0,2.8.41,3,.18l-.14-1.29-.77-.26-1.26-.45-3-1.09c-1.83-.65-2.61,2.25-.8,2.9Z" transform="translate(-32.54 -41.54)"/></g><path id="_Clipping_Path_8" data-name="&lt;Clipping Path&gt;" class="cls-24" d="M75.91,598.34c-5,24.69-13.81,45.74-19.65,47.93-7.27-6.72-11.46-24.43-12.9-50.73C41.92,569.4,50,550.76,63.15,551.72S81.14,572.69,75.91,598.34Z" transform="translate(-32.54 -41.54)"/><path class="cls-18" d="M66,551.61,53.81,479.52c-.64-3.8-6.43-2.19-5.78,1.59l12.21,72.1c.64,3.8,6.42,2.19,5.78-1.6Z" transform="translate(-32.54 -41.54)"/><path class="cls-18" d="M68.18,550.8a414,414,0,0,0-4-46.91c-.54-3.81-6.32-2.19-5.78,1.59a399.86,399.86,0,0,1,3.81,45.32c.11,3.85,6.11,3.87,6,0Z" transform="translate(-32.54 -41.54)"/><path class="cls-18" d="M71.8,548.9a348.57,348.57,0,0,0,14.32-62.74c.52-3.81-5.49-3.77-6,0A340.78,340.78,0,0,1,66,547.3c-1.21,3.68,4.58,5.25,5.79,1.6Z" transform="translate(-32.54 -41.54)"/><path class="cls-18" d="M71.52,545.16a332.38,332.38,0,0,1,.94-39.67c.33-3.85-5.67-3.83-6,0a332.38,332.38,0,0,0-.94,39.67c.14,3.85,6.14,3.87,6,0Z" transform="translate(-32.54 -41.54)"/><path class="cls-18" d="M69.1,555c7.09-16.4,24.2-25.27,32.62-40.85,1.84-3.4-3.34-6.43-5.18-3C88.12,526.69,71,535.49,63.92,552c-1.51,3.51,3.66,6.57,5.18,3Z" transform="translate(-32.54 -41.54)"/><path id="_Clipping_Path_9" data-name="&lt;Clipping Path&gt;" class="cls-21" d="M181,178c-2.18,10.68-6,19.79-8.5,20.74-3.15-2.91-5-10.57-5.59-22s2.85-19.37,8.57-19S183.25,166.86,181,178Z" transform="translate(-32.54 -41.54)"/><g class="cls-25"><path class="cls-23" d="M168.7,114.72a26.89,26.89,0,0,0,29.58,8.07c1.82-.62,1-3.51-.8-2.9a23.92,23.92,0,0,1-26.66-7.29c-1.25-1.47-3.37.66-2.12,2.12Z" transform="translate(-32.54 -41.54)"/><path class="cls-23" d="M171.22,167.18a13.42,13.42,0,0,0,8.18,1.15c.48-.08.27-.8-.2-.72a12.53,12.53,0,0,1-7.6-1.08c-.44-.2-.82.44-.38.65Z" transform="translate(-32.54 -41.54)"/><path class="cls-23" d="M168.68,171.44a17.16,17.16,0,0,0,11.24,2.05c.48-.08.28-.8-.2-.73a16.25,16.25,0,0,1-10.66-2c-.42-.24-.8.41-.38.64Z" transform="translate(-32.54 -41.54)"/><path class="cls-23" d="M169,177.43a10.52,10.52,0,0,0,8.9,1.43.37.37,0,0,0-.2-.72,9.76,9.76,0,0,1-8.32-1.36c-.4-.27-.78.38-.38.65Z" transform="translate(-32.54 -41.54)"/><path class="cls-23" d="M170.11,183.91a14.94,14.94,0,0,0,5.48,1.12.38.38,0,0,0,0-.75,14.49,14.49,0,0,1-5.28-1.09c-.45-.19-.65.54-.2.72Z" transform="translate(-32.54 -41.54)"/><path class="cls-23" d="M174.47,160a11.3,11.3,0,0,0,2.62.85,2,2,0,0,0,2.23-1.69c.12-1.27-.89-1.94-2-2a22.33,22.33,0,0,0-2.58-.16,1.89,1.89,0,0,0-1.58,2.47,2.54,2.54,0,0,0,2.05,1.7,3.57,3.57,0,0,0,2.62-.35,2.54,2.54,0,0,0,1.09-2.71,1.53,1.53,0,0,0-1.85-1,1.54,1.54,0,0,0-1,1.85.53.53,0,0,1,.1-.54.48.48,0,0,1,.23-.13c0,.07-.23,0-.26,0-.32,0,.27,0-.27,0l-.18,0a.84.84,0,0,1,.45.83l-.39.66.1-.12-1.06.44,1.41.09.7,0h.24c.43.06.32,0-.31-.21l-.39-.66,0,.13v-.8l.36-.5.75-.2a3.2,3.2,0,0,1-1-.32l-1.2-.43a1.5,1.5,0,1,0-.8,2.89Z" transform="translate(-32.54 -41.54)"/></g><path id="_Clipping_Path_10" data-name="&lt;Clipping Path&gt;" class="cls-24" d="M181,178c-2.18,10.68-6,19.79-8.5,20.74-3.15-2.91-5-10.57-5.59-22s2.85-19.37,8.57-19S183.25,166.86,181,178Z" transform="translate(-32.54 -41.54)"/><path class="cls-18" d="M176.54,157.78l-5.28-31.19c-.24-1.43-2.41-.82-2.17.6l5.28,31.19c.25,1.43,2.41.82,2.17-.6Z" transform="translate(-32.54 -41.54)"/><path class="cls-18" d="M177.47,157.39a183.33,183.33,0,0,0-1.74-20.26c-.2-1.43-2.36-.82-2.17.6a179.52,179.52,0,0,1,1.66,19.66c0,1.44,2.29,1.45,2.25,0Z" transform="translate(-32.54 -41.54)"/><path class="cls-18" d="M179,156.52a154.19,154.19,0,0,0,6.15-26.8c.2-1.42-2-2-2.16-.6a154.92,154.92,0,0,1-6.16,26.8c-.45,1.38,1.72,2,2.17.6Z" transform="translate(-32.54 -41.54)"/><path class="cls-18" d="M178.91,155a149,149,0,0,1,.41-17.17c.12-1.45-2.13-1.44-2.25,0a149,149,0,0,0-.41,17.17c.05,1.44,2.3,1.45,2.25,0Z" transform="translate(-32.54 -41.54)"/><path class="cls-18" d="M177.89,159.12c3.15-7.06,10.4-11,14.12-17.68.7-1.27-1.24-2.4-1.94-1.14C186.35,147,179.12,150.89,176,158c-.58,1.31,1.35,2.46,1.94,1.14Z" transform="translate(-32.54 -41.54)"/><path class="cls-20" d="M239,216.41c2.46-4.77,3.78-5.34,6-10.85,1.8-4.5,3-9.54,1.61-14.17-1.05-3.44-3.43-6.29-6-8.82-6.1-6.07-13.62-10.92-22-12.85-6.43-1.48-14.21-.73-18.12,4.59-2.7,3.69-2.84,8.88-1,13.08a22,22,0,0,0,9.24,9.85c2.5,1.49,5.23,2.67,7.34,4.67,2.71,2.57,4.1,6.19,5.69,9.58s3.7,6.83,7.11,8.35S237.08,220.15,239,216.41Z" transform="translate(-32.54 -41.54)"/><path class="cls-11" d="M237.23,214.21c2.21-4.29,3.4-4.81,5.37-9.77,1.62-4.06,2.72-8.59,1.45-12.76-.94-3.09-3.09-5.67-5.38-8-5.49-5.46-12.26-9.82-19.81-11.56-5.79-1.34-12.79-.66-16.31,4.13-2.44,3.33-2.56,8-.94,11.78a19.81,19.81,0,0,0,8.32,8.87c2.25,1.34,4.71,2.4,6.61,4.2,2.44,2.32,3.69,5.58,5.12,8.63s3.33,6.15,6.41,7.52A7.25,7.25,0,0,0,237.23,214.21Z" transform="translate(-32.54 -41.54)"/><circle class="cls-20" cx="198.68" cy="167.2" r="2.26"/><path class="cls-18" d="M162.91,266.6c-46.75,0-85.2-3.43-89.84-7.81a65,65,0,0,0-.47,7.81c0,42.06,40.43,76.16,90.31,76.16s90.31-34.1,90.31-76.16a65,65,0,0,0-.47-7.81C248.11,263.17,209.66,266.6,162.91,266.6Z" transform="translate(-32.54 -41.54)"/><path class="cls-15" d="M253.22,258.62a1.5,1.5,0,0,0-.75-1.13c.11.67.2,1.35.28,2A1.25,1.25,0,0,0,253.22,258.62Z" transform="translate(-32.54 -41.54)"/><path class="cls-15" d="M72.6,258.62a1.25,1.25,0,0,0,.47.89c.08-.67.17-1.35.27-2A1.51,1.51,0,0,0,72.6,258.62Z" transform="translate(-32.54 -41.54)"/><path class="cls-26" d="M251.3,259.51c-.08-.67-.17-1.35-.27-2-5.62-4.27-42.86-7.58-88-7.58s-82.35,3.31-88,7.58c-.1.67-.19,1.35-.27,2,4.56,4.39,42.33,7.81,88.24,7.81S246.75,263.9,251.3,259.51Z" transform="translate(-32.54 -41.54)"/><path class="cls-18" d="M98.11,295.32h60.31a0,0,0,0,1,0,0v2.4a3.5,3.5,0,0,1-3.5,3.5H101.61a3.5,3.5,0,0,1-3.5-3.5v-2.4a0,0,0,0,1,0,0Z"/><path class="cls-7" d="M229.78,261.92l-6.76.53,39.4-47.31c.83-1,3.07-.61,4,.21h0c1,.83,1.82,3,1,4Z" transform="translate(-32.54 -41.54)"/><path class="cls-8" d="M75.1,148.09H134a5.67,5.67,0,0,1,5.67,5.67v79a5.67,5.67,0,0,1-5.67,5.67H75.1a0,0,0,0,1,0,0V148.09a0,0,0,0,1,0,0Z" transform="translate(-129.73 67.84) rotate(-38.65)"/><path class="cls-8" d="M84,167.69H94.29a0,0,0,0,1,0,0v102a0,0,0,0,1,0,0H84a8.5,8.5,0,0,1-8.5-8.5v-85A8.5,8.5,0,0,1,84,167.69Z" transform="translate(-150.54 59.38) rotate(-38.65)"/><path class="cls-9" d="M84.36,155.64h58.87a5.67,5.67,0,0,1,5.67,5.67v79a5.67,5.67,0,0,1-5.67,5.67H84.36a0,0,0,0,1,0,0V155.64a0,0,0,0,1,0,0Z" transform="translate(-132.42 75.28) rotate(-38.65)"/><rect class="cls-10" x="80.85" y="180.73" width="42.24" height="3.52" transform="translate(-124.18 62.11) rotate(-38.65)"/><rect class="cls-10" x="91.07" y="187.2" width="31.68" height="2.93" transform="translate(-126.96 66.55) rotate(-38.65)"/><circle class="cls-11" cx="95.17" cy="173.13" r="19.51"/><path class="cls-12" d="M139,211.58c1.3,6.28-.79,13.73-8.69,15.36-6.29,1.3-16.54-8.05-17.84-14.34s4.67-10.82,12.54-10.31C131.6,197.76,137.69,205.29,139,211.58Z" transform="translate(-32.54 -41.54)"/><rect class="cls-13" x="122.43" y="223.38" width="16.13" height="3.82" transform="translate(-75.44 -10.47) rotate(-11.68)"/><path class="cls-14" d="M136.21,216.64a16.16,16.16,0,0,0-2.9-8.62,14.74,14.74,0,0,0-2.23-2.5" transform="translate(-32.54 -41.54)"/><path class="cls-14" d="M133.22,216.45a16.24,16.24,0,0,0-2.89-8.62,15.62,15.62,0,0,0-2.24-2.5" transform="translate(-32.54 -41.54)"/><path class="cls-15" d="M57.31,179.14c-.19.15-.35.31-.52.47s-.38.25-.57.4c-2.62,2.09-3.5,5.32-2,7.22s4.87,1.74,7.49-.35c.18-.15.34-.31.51-.47a5.34,5.34,0,0,0,.57-.4l44.48-35.57-5.5-6.87Z" transform="translate(-32.54 -41.54)"/><ellipse id="_Ellipse_8" data-name="&lt;Ellipse&gt;" class="cls-2" cx="211.65" cy="246.73" rx="11.2" ry="13.57" transform="translate(-100.58 370.84) rotate(-80.01)"/><g class="cls-27"><path class="cls-2" d="M186.49,227.2q1.51,5.37,3.25,10.7" transform="translate(-32.54 -41.54)"/><path class="cls-2" d="M183.29,225.41l6.19,9" transform="translate(-32.54 -41.54)"/><path class="cls-2" d="M159,224.53a75.26,75.26,0,0,0,12.46,17.77c1.33,1.41,3.45-.72,2.13-2.12a72.32,72.32,0,0,1-12-17.17c-.87-1.72-3.46-.2-2.59,1.52Z" transform="translate(-32.54 -41.54)"/><path class="cls-17" d="M218.66,243.53c1.57.9,1.94,2.59,2.24,4.24.18.95,1.62.55,1.45-.4-.38-2.06-1-4-2.93-5.13a.75.75,0,0,0-.76,1.29Z" transform="translate(-32.54 -41.54)"/></g><path class="cls-18" d="M214,236.3a6.35,6.35,0,0,0,1.15-3.33l-1.47.2a7.38,7.38,0,0,1,.32,1.62,4.1,4.1,0,0,1,0,.7,1,1,0,0,1,0,.24c0,.17-.13.26-.33.26l.52-.52a2.1,2.1,0,0,1-.75,0c-.95-.14-1.36,1.31-.4,1.45a4.26,4.26,0,0,0,1.55-.05.72.72,0,0,0,.52-.52,1.19,1.19,0,0,0-1.65-1.42,1.24,1.24,0,0,0,0,2.17,1.39,1.39,0,0,0,2-1,6.74,6.74,0,0,0-.32-3.36.76.76,0,0,0-1.48.2,4.91,4.91,0,0,1-.94,2.57c-.56.79.74,1.54,1.29.76Z" transform="translate(-32.54 -41.54)"/><path class="cls-18" d="M214.47,237.5a4.93,4.93,0,0,1,3.57,1.67c.66.72,1.71-.35,1.06-1.06a6.48,6.48,0,0,0-4.63-2.11c-1,0-1,1.46,0,1.5Z" transform="translate(-32.54 -41.54)"/><path class="cls-18" d="M214.89,237.16a34.63,34.63,0,0,0,3.67-.26c.94-.11.95-1.62,0-1.5a34.63,34.63,0,0,1-3.67.26.75.75,0,0,0,0,1.5Z" transform="translate(-32.54 -41.54)"/><path class="cls-18" d="M213.82,235.52a3.73,3.73,0,0,1-2.66-1.68c-.51-.81-1.81-.06-1.29.76a5.12,5.12,0,0,0,3.55,2.36c.94.14,1.35-1.3.4-1.44Z" transform="translate(-32.54 -41.54)"/><path class="cls-18" d="M213.18,237.29a2.1,2.1,0,0,1,1.17,1.55.78.78,0,0,0,.75.75c.37,0,.81-.34.75-.75a3.66,3.66,0,0,0-1.91-2.85c-.86-.44-1.62.85-.76,1.3Z" transform="translate(-32.54 -41.54)"/><path class="cls-18" d="M212.67,236a9.14,9.14,0,0,1-1.67-.09,10.48,10.48,0,0,0-2.16.28c-.94.22-.54,1.66.4,1.45a10.28,10.28,0,0,1,3-.16,1.8,1.8,0,0,0,1.7-.73c.58-.77-.72-1.52-1.3-.75Z" transform="translate(-32.54 -41.54)"/><path class="cls-19" d="M196,215.21c3.28,2.21,1.12,7.79-1.71,10.54s-6.63,4.41-9.3,7.33c-4.49,4.91-1.05,16-8.77,19.44-5.23,2.35-9.35.18-12.53-1-6.27-3.29-5.74-9.1-4.56-13.78,1.2-3.44,1.2-3.44,4.66-6.42,5-3.7,9.52-7.19,14.82-10.4a63,63,0,0,1,9.7-5.26C192.41,214.36,193,213.18,196,215.21Z" transform="translate(-32.54 -41.54)"/><path class="cls-19" d="M195,216.27c1.35,1.23,1,4.2.29,5.65a11.74,11.74,0,0,1-2.55,3.27c-1.73,1.58-3.8,2.76-5.67,4.16a13.64,13.64,0,0,0-5.13,6.24c-1.06,2.88-1.14,6-1.83,9-1.44,6.18-6.37,8.57-12.46,6.82-5.75-1.65-8.5-5.7-7.38-11.58.89-4.62,3.65-6.63,7.28-9.38,4.26-3.22,8.64-6.24,13.2-9,3.63-2.21,10.33-7.37,14.56-4.89a1.5,1.5,0,0,0,1.51-2.59c-4.84-2.85-10.59.8-14.94,3.3a146.55,146.55,0,0,0-19.09,13c-7,5.67-8.67,18.19.56,22.7,4.82,2.36,11.13,3.22,15.61-.33,3.89-3.09,4.14-8.19,5-12.7a12.15,12.15,0,0,1,5.24-8.43c2.41-1.79,5.11-3.25,7.06-5.59,2.75-3.3,4.46-8.48.88-11.76C195.67,212.85,193.55,215,195,216.27Z" transform="translate(-32.54 -41.54)"/><path class="cls-18" d="M196.21,216.61l.13,4.31,2.95-.4a7.06,7.06,0,0,1-.36-3.5,1.52,1.52,0,0,0-1.5-1.5,1.54,1.54,0,0,0-1.5,1.5,9.12,9.12,0,0,0,.46,4.3c.54,1.51,3,1.39,3-.4l-.13-4.31c-.05-1.92-3.05-1.93-3,0Z" transform="translate(-32.54 -41.54)"/><path class="cls-18" d="M196.66,215.24a9,9,0,0,0-2.86,3.28c-.45.89.07,2.42,1.29,2.26a3.43,3.43,0,0,0,3.15-3.44,1.5,1.5,0,0,0-3,0c0,.3.1-.08,0,.18.14-.32-.16.31-.07.14l-.07.06c-.19.12-.24.09,0,.06l1.3,2.25a6,6,0,0,1,1.78-2.2,1.54,1.54,0,0,0,.54-2.05,1.51,1.51,0,0,0-2.05-.54Z" transform="translate(-32.54 -41.54)"/><path class="cls-18" d="M197.87,214.84a6.22,6.22,0,0,0-6.31,1.23c-1.21,1.05.1,2.8,1.46,2.51a8.78,8.78,0,0,1,3.35-.1c1.89.32,2.7-2.57.8-2.89a13.09,13.09,0,0,0-4.95.09l1.46,2.51a3.23,3.23,0,0,1,3.39-.45,1.52,1.52,0,0,0,1.84-1.05,1.54,1.54,0,0,0-1-1.85Z" transform="translate(-32.54 -41.54)"/><path class="cls-18" d="M196.31,214.14a29.59,29.59,0,0,1-4.81-.48l.9.69c-1,1-1.15,1.49-.32,1.56l.37.09c.43.11.86.24,1.29.37.79.25,1.57.53,2.33.84a1.51,1.51,0,0,0,1.85-1,1.53,1.53,0,0,0-1-1.85,29.54,29.54,0,0,0-4-1.31c-1.27-.3-2.75-.3-3.27,1.15s.65,2.41,2,2.55c1.56.17,3.12.29,4.69.43,1.92.17,1.91-2.83,0-3Z" transform="translate(-32.54 -41.54)"/><path class="cls-18" d="M198.3,215.45a4,4,0,0,0-2.69-2.48c-.62-.22-2.67-.27-2.93-1-.63-1.81-3.53-1-2.89.8a4,4,0,0,0,2.68,2.5c.6.21,2.68.27,2.94,1,.67,1.79,3.57,1,2.89-.8Z" transform="translate(-32.54 -41.54)"/><path class="cls-18" d="M197.17,216.26a4.21,4.21,0,0,0,1.86-1.21,1.51,1.51,0,0,0-1.46-2.51,2.83,2.83,0,0,0-2,3.56,1.54,1.54,0,0,0,1.85,1.05,1.52,1.52,0,0,0,1-1.85c-.13-.36,0,.3,0-.08,0,.18,0,.21,0,.1s0-.08,0,.07c.15-.25-.17.12.08-.08-.08.07-.39.19-.12.12l-1.46-2.5s-.42.4-.23.26c-.07.05-.53.26-.31.18a1.54,1.54,0,0,0-1.05,1.84,1.52,1.52,0,0,0,1.85,1Z" transform="translate(-32.54 -41.54)"/><text class="cls-28" transform="translate(0 67.34)">WEEK<tspan class="cls-29" x="144.36" y="0">L</tspan><tspan x="170.04" y="0">Y’S</tspan></text><text class="cls-30" transform="translate(6.18 355.09)">plan it, cook it, eat it</text><path id="_Clipping_Path_11" data-name="&lt;Clipping Path&gt;" class="cls-21" d="M1056.71,506.79c-1.79,8.8-4.92,16.3-7,17.08-2.59-2.39-4.09-8.71-4.6-18.08s2.35-16,7.05-15.62S1058.58,497.65,1056.71,506.79Z" transform="translate(-32.54 -41.54)"/><g class="cls-31"><path class="cls-23" d="M1046.41,454.89a22.45,22.45,0,0,0,24.61,6.72c1.82-.61,1-3.51-.8-2.9a19.51,19.51,0,0,1-21.69-5.94c-1.27-1.46-3.38.67-2.12,2.12Z" transform="translate(-32.54 -41.54)"/><path class="cls-23" d="M1048.63,498a11.12,11.12,0,0,0,6.79.95c.48-.08.28-.8-.2-.72a10.24,10.24,0,0,1-6.21-.88c-.43-.2-.81.44-.38.65Z" transform="translate(-32.54 -41.54)"/><path class="cls-23" d="M1046.55,501.48a14.16,14.16,0,0,0,9.3,1.69c.48-.07.28-.8-.2-.72a13.31,13.31,0,0,1-8.73-1.62.37.37,0,0,0-.37.65Z" transform="translate(-32.54 -41.54)"/><path class="cls-23" d="M1046.76,506.41a8.74,8.74,0,0,0,7.38,1.19.37.37,0,0,0-.2-.72,8,8,0,0,1-6.8-1.12c-.4-.27-.77.38-.38.65Z" transform="translate(-32.54 -41.54)"/><path class="cls-23" d="M1047.73,511.75a12.44,12.44,0,0,0,4.54.93.38.38,0,0,0,0-.75,12,12,0,0,1-4.34-.9c-.45-.18-.64.54-.2.72Z" transform="translate(-32.54 -41.54)"/><path class="cls-23" d="M1051.27,492.23a9.79,9.79,0,0,0,2.19.7,1.87,1.87,0,0,0,2.13-1.61c.13-1.22-.83-1.89-1.92-2a18.88,18.88,0,0,0-2.13-.13,1.82,1.82,0,0,0-1.55,2.37,2.33,2.33,0,0,0,1.87,1.58,3.28,3.28,0,0,0,2.36-.31,2.37,2.37,0,0,0,1-2.53,1.51,1.51,0,0,0-1.85-1.05,1.54,1.54,0,0,0-1.05,1.84c-.12-.62.09-.65.46-.87l-.15,0c.11,0,.11,0,0,0-.29,0,.33,0-.16,0l-.15,0a.94.94,0,0,1,.56,1l-.39.66.08-.1-1.06.44,1.16.07.58,0h.2c.41.05.27,0-.45-.25l-.38-.66,0,.11v-.8l.41-.57.76-.2a4.46,4.46,0,0,1-.79-.26l-1-.35a1.5,1.5,0,0,0-.8,2.89Z" transform="translate(-32.54 -41.54)"/></g><path id="_Clipping_Path_12" data-name="&lt;Clipping Path&gt;" class="cls-24" d="M1056.71,506.79c-1.79,8.8-4.92,16.3-7,17.08-2.59-2.39-4.09-8.71-4.6-18.08s2.35-16,7.05-15.62S1058.58,497.65,1056.71,506.79Z" transform="translate(-32.54 -41.54)"/><path class="cls-18" d="M1053.24,490.12l-4.35-25.69c-.24-1.43-2.41-.82-2.17.6l4.35,25.69c.24,1.42,2.41.82,2.17-.6Z" transform="translate(-32.54 -41.54)"/><path class="cls-18" d="M1054,489.85a151.39,151.39,0,0,0-1.43-16.74c-.2-1.43-2.37-.82-2.17.6a147.79,147.79,0,0,1,1.35,16.14c0,1.44,2.3,1.45,2.25,0Z" transform="translate(-32.54 -41.54)"/><path class="cls-18" d="M1055.3,489.18a128.15,128.15,0,0,0,5.07-22.07c.19-1.42-2-2-2.17-.6a128.15,128.15,0,0,1-5.07,22.07c-.45,1.38,1.72,2,2.17.6Z" transform="translate(-32.54 -41.54)"/><path class="cls-18" d="M1055.2,487.84a121.28,121.28,0,0,1,.34-14.14c.12-1.45-2.13-1.44-2.25,0a121.28,121.28,0,0,0-.34,14.14c0,1.44,2.3,1.45,2.25,0Z" transform="translate(-32.54 -41.54)"/><path class="cls-18" d="M1054.34,491.37c2.59-5.81,8.56-9,11.62-14.56.7-1.27-1.24-2.4-1.94-1.13-3.06,5.52-9,8.71-11.63,14.56-.58,1.31,1.36,2.45,1.95,1.13Z" transform="translate(-32.54 -41.54)"/><path class="cls-20" d="M1104.47,538.46c2-3.93,3.11-4.4,4.92-8.94,1.47-3.71,2.48-7.85,1.32-11.67a18.09,18.09,0,0,0-4.92-7.26c-5-5-11.21-9-18.12-10.59-5.3-1.22-11.7-.6-14.92,3.79a11.1,11.1,0,0,0-.85,10.77,18.11,18.11,0,0,0,7.6,8.11c2.06,1.23,4.31,2.2,6,3.84,2.23,2.12,3.37,5.11,4.69,7.89s3,5.63,5.85,6.88A6.62,6.62,0,0,0,1104.47,538.46Z" transform="translate(-32.54 -41.54)"/><path class="cls-11" d="M1103,536.65c1.83-3.54,2.8-4,4.43-8,1.33-3.34,2.24-7.07,1.19-10.51a16.24,16.24,0,0,0-4.43-6.54,34.61,34.61,0,0,0-16.31-9.53c-4.78-1.1-10.54-.54-13.44,3.41a10,10,0,0,0-.77,9.7,16.33,16.33,0,0,0,6.85,7.3c1.85,1.11,3.88,2,5.44,3.46,2,1.91,3,4.6,4.22,7.11s2.75,5.06,5.28,6.19A6,6,0,0,0,1103,536.65Z" transform="translate(-32.54 -41.54)"/><circle class="cls-20" cx="1065.54" cy="490.6" r="1.86"/><path class="cls-18" d="M1041.82,579.79c-38.5,0-70.17-2.82-74-6.43a52.73,52.73,0,0,0-.39,6.43c0,34.65,33.3,62.74,74.38,62.74s74.39-28.09,74.39-62.74a54.81,54.81,0,0,0-.39-6.43C1112,577,1080.33,579.79,1041.82,579.79Z" transform="translate(-32.54 -41.54)"/><path class="cls-15" d="M1116.21,573.22a1.23,1.23,0,0,0-.62-.92c.08.55.16,1.1.23,1.66A1.07,1.07,0,0,0,1116.21,573.22Z" transform="translate(-32.54 -41.54)"/><path class="cls-15" d="M967.44,573.22a1,1,0,0,0,.39.74c.06-.56.14-1.11.22-1.66A1.24,1.24,0,0,0,967.44,573.22Z" transform="translate(-32.54 -41.54)"/><path class="cls-26" d="M1114.62,574c-.06-.56-.14-1.11-.22-1.66-4.62-3.52-35.3-6.25-72.45-6.25s-67.83,2.73-72.45,6.25c-.09.55-.16,1.1-.23,1.66,3.75,3.61,34.86,6.43,72.68,6.43S1110.87,577.57,1114.62,574Z" transform="translate(-32.54 -41.54)"/><path class="cls-18" d="M982.72,596.12h49.67a0,0,0,0,1,0,0v2a2.88,2.88,0,0,1-2.88,2.88H985.6a2.88,2.88,0,0,1-2.88-2.88v-2A0,0,0,0,1,982.72,596.12Z"/><path class="cls-7" d="M1096.9,575.94l-5.57.44,32.45-39c.68-.79,2.53-.5,3.32.18h0c.79.68,1.5,2.47.82,3.26Z" transform="translate(-32.54 -41.54)"/><path class="cls-8" d="M969.5,482.19H1018a4.67,4.67,0,0,1,4.67,4.67v65.08a4.67,4.67,0,0,1-4.67,4.67H969.5a0,0,0,0,1,0,0V482.19A0,0,0,0,1,969.5,482.19Z" transform="matrix(0.78, -0.62, 0.62, 0.78, -138.77, 694.32)"/><path class="cls-8" d="M976.85,498.34h8.46a0,0,0,0,1,0,0v84a0,0,0,0,1,0,0h-8.46a7,7,0,0,1-7-7v-70a7,7,0,0,1,7-7Z" transform="translate(-155.92 687.35) rotate(-38.65)"/><path class="cls-9" d="M977.13,488.41h48.48a4.67,4.67,0,0,1,4.67,4.67v65.08a4.67,4.67,0,0,1-4.67,4.67H977.13a0,0,0,0,1,0,0V488.41A0,0,0,0,1,977.13,488.41Z" transform="translate(-140.99 700.44) rotate(-38.65)"/><rect class="cls-10" x="974.23" y="509.07" width="34.79" height="2.9" transform="translate(-134.21 689.59) rotate(-38.65)"/><rect class="cls-10" x="982.66" y="514.4" width="26.09" height="2.42" transform="translate(-136.5 693.25) rotate(-38.65)"/><circle class="cls-11" cx="980.29" cy="495.49" r="16.07"/><path class="cls-12" d="M1022.12,534.48c1.07,5.18-.65,11.31-7.16,12.65-5.18,1.07-13.61-6.63-14.68-11.8s3.84-8.92,10.32-8.5C1016,523.1,1021.05,529.3,1022.12,534.48Z" transform="translate(-32.54 -41.54)"/><rect class="cls-13" x="1008.49" y="544.2" width="13.29" height="3.15" transform="translate(-122 175.21) rotate(-11.68)"/><path class="cls-14" d="M1019.83,538.65a13.38,13.38,0,0,0-2.38-7.1,12.72,12.72,0,0,0-1.84-2.06" transform="translate(-32.54 -41.54)"/><path class="cls-14" d="M1017.37,538.49a13.32,13.32,0,0,0-2.38-7.1,12.21,12.21,0,0,0-1.84-2" transform="translate(-32.54 -41.54)"/><path class="cls-15" d="M954.85,507.76a5.39,5.39,0,0,0-.43.39c-.15.11-.32.2-.47.33-2.15,1.72-2.89,4.38-1.64,5.95s4,1.43,6.17-.29c.15-.12.28-.26.42-.39a3.63,3.63,0,0,0,.47-.33L996,484.13l-4.52-5.66Z" transform="translate(-32.54 -41.54)"/><ellipse id="_Ellipse_9" data-name="&lt;Ellipse&gt;" class="cls-2" cx="1081.96" cy="563.43" rx="9.22" ry="11.17" transform="translate(306.91 1489.76) rotate(-80.01)"/><g class="cls-32"><path class="cls-2" d="M1061.24,547.34c.84,3,1.73,5.89,2.68,8.82" transform="translate(-32.54 -41.54)"/><path class="cls-2" d="M1058.61,545.88l5.1,7.4" transform="translate(-32.54 -41.54)"/><path class="cls-2" d="M1038.36,545.28A61.86,61.86,0,0,0,1048.67,560c1.32,1.41,3.44-.72,2.12-2.12a59.37,59.37,0,0,1-9.84-14.09c-.87-1.72-3.46-.2-2.59,1.52Z" transform="translate(-32.54 -41.54)"/><path class="cls-17" d="M1087.68,560.91c1.26.72,1.54,2.09,1.78,3.41.17.95,1.62.55,1.45-.39-.32-1.73-.86-3.39-2.48-4.31a.75.75,0,0,0-.75,1.29Z" transform="translate(-32.54 -41.54)"/></g><path class="cls-18" d="M1084,554.91a5.37,5.37,0,0,0,1-2.81l-1.47.2a7,7,0,0,1,.26,1.3,5.62,5.62,0,0,1,0,.58,1,1,0,0,1,0,.16q0,.2-.27.21l.52-.52a1.45,1.45,0,0,1-.55,0,.79.79,0,0,0-.93.53.76.76,0,0,0,.53.92,3.41,3.41,0,0,0,1.35,0,.72.72,0,0,0,.52-.52,1.11,1.11,0,0,0-1.55-1.32,1.16,1.16,0,0,0,0,2,1.28,1.28,0,0,0,1.84-.91,5.5,5.5,0,0,0-.26-2.84.75.75,0,0,0-1.47.2,3.92,3.92,0,0,1-.76,2c-.56.79.74,1.54,1.29.76Z" transform="translate(-32.54 -41.54)"/><path class="cls-18" d="M1084.29,556a4,4,0,0,1,2.85,1.34c.65.71,1.71-.35,1.06-1.06a5.47,5.47,0,0,0-3.91-1.78c-1,0-1,1.46,0,1.5Z" transform="translate(-32.54 -41.54)"/><path class="cls-18" d="M1084.64,555.68c1,0,2-.09,3-.21s.95-1.62,0-1.5-2,.19-3,.21a.75.75,0,0,0,0,1.5Z" transform="translate(-32.54 -41.54)"/><path class="cls-18" d="M1083.79,554.07a2.91,2.91,0,0,1-2.11-1.32c-.52-.82-1.81-.06-1.3.76a4.33,4.33,0,0,0,3,2,.77.77,0,0,0,.92-.52.75.75,0,0,0-.52-.92Z" transform="translate(-32.54 -41.54)"/><path class="cls-18" d="M1083.16,555.77a1.7,1.7,0,0,1,.93,1.37.75.75,0,0,0,.92.52.77.77,0,0,0,.52-.92,3.07,3.07,0,0,0-1.61-2.27c-.86-.44-1.62.85-.76,1.3Z" transform="translate(-32.54 -41.54)"/><path class="cls-18" d="M1082.7,554.55c.12-.17-.2-.09-.39-.1s-.58,0-.88,0a8.48,8.48,0,0,0-1.81.24c-.94.21-.55,1.66.4,1.44a8.45,8.45,0,0,1,2.46-.12,1.63,1.63,0,0,0,1.51-.66c.58-.78-.72-1.52-1.29-.76Z" transform="translate(-32.54 -41.54)"/><path class="cls-19" d="M1069.1,537.47c2.71,1.82.93,6.41-1.41,8.69s-5.46,3.62-7.65,6c-3.7,4-.87,13.16-7.23,16-4.31,1.94-7.7.15-10.32-.83-5.17-2.7-4.72-7.49-3.75-11.34,1-2.84,1-2.84,3.84-5.29,4.09-3,7.83-5.93,12.2-8.57a53.21,53.21,0,0,1,8-4.33C1066.12,536.77,1066.62,535.8,1069.1,537.47Z" transform="translate(-32.54 -41.54)"/><path class="cls-19" d="M1068,538.53c4.49,4.44-9.32,11.38-10.89,15.81-2.18,6.18-1.15,16-11.57,12.59-4.67-1.51-6.61-4.8-5.64-9.43.81-3.88,3.35-5.42,6.41-7.72,3.38-2.53,6.84-4.9,10.45-7.09,2.89-1.75,8.18-5.84,11.55-3.92a1.5,1.5,0,0,0,1.51-2.59c-4-2.29-8.35.36-12,2.4a114.23,114.23,0,0,0-16.33,11.1c-5.8,4.72-7.24,15,.22,19,3.52,1.89,8.16,2.64,11.84.82,4-2,4.88-6,5.57-10.12.48-2.87.83-5.18,3.13-7.25s5.32-3.36,7.33-5.85c2.34-2.92,3.44-7,.57-9.86C1068.79,535.05,1066.67,537.17,1068,538.53Z" transform="translate(-32.54 -41.54)"/><path class="cls-18" d="M1069,538.63l.1,3.54,3-.39a5.76,5.76,0,0,1-.29-2.82c.11-.8-.76-1.5-1.5-1.5a1.54,1.54,0,0,0-1.5,1.5,7.64,7.64,0,0,0,.4,3.61c.54,1.52,3,1.39,2.94-.4l-.1-3.54c-.06-1.93-3.06-1.94-3,0Z" transform="translate(-32.54 -41.54)"/><path class="cls-18" d="M1069.48,537.27a7.75,7.75,0,0,0-2.45,2.79,1.53,1.53,0,0,0,.12,1.67,1.59,1.59,0,0,0,1.58.54,3.05,3.05,0,0,0,2.46-3,1.5,1.5,0,0,0-3,0c0,.16,0,.18,0,.07s0-.08,0,.07c.06-.13.06-.15,0-.05s0,.08,0,0l-.09.09q.18-.14,0,0l.11,0a.86.86,0,0,1-.27,0l1.69,2.21c.1-.19.2-.38.31-.55s.11-.18.17-.27l.09-.12c0,.07,0,.07,0,0s.28-.31.43-.46l.24-.21.13-.1a1.55,1.55,0,0,0,.53-2.06,1.5,1.5,0,0,0-2-.53Z" transform="translate(-32.54 -41.54)"/><path class="cls-18" d="M1070.68,536.91a5.39,5.39,0,0,0-5.45,1.08c-1.21,1,.11,2.8,1.46,2.51a6.8,6.8,0,0,1,2.62-.08,1.55,1.55,0,0,0,1.85-1,1.51,1.51,0,0,0-1.05-1.84,10.9,10.9,0,0,0-4.22.08l1.46,2.5a2.41,2.41,0,0,1,2.54-.3,1.52,1.52,0,0,0,1.84-1,1.54,1.54,0,0,0-1-1.85Z" transform="translate(-32.54 -41.54)"/><path class="cls-18" d="M1069.33,536.32a24,24,0,0,1-3.89-.38l.9.69-.1-.13.2.75v-.17l-.21.76h0l-.66.39c-.18,0,.41.1.53.14.36.09.71.19,1.06.3.65.21,1.29.44,1.93.7a1.5,1.5,0,0,0,1.84-1,1.54,1.54,0,0,0-1-1.85c-1.61-.64-5.42-2.46-6.3,0-.51,1.42.58,2.34,1.9,2.47s2.57.24,3.86.35c1.92.18,1.91-2.82,0-3Z" transform="translate(-32.54 -41.54)"/><path class="cls-18" d="M1071.23,537.6a3.61,3.61,0,0,0-2.41-2.23c-.47-.17-1-.22-1.45-.35a3.45,3.45,0,0,1-.52-.16c-.19-.07-.3-.27-.25-.13-.64-1.81-3.54-1-2.89.8a3.55,3.55,0,0,0,2.39,2.24,14.38,14.38,0,0,0,1.44.35l.53.16c.17.06.32.27.27.12.66,1.79,3.56,1,2.89-.8Z" transform="translate(-32.54 -41.54)"/><path class="cls-18" d="M1070.11,538.59a3.85,3.85,0,0,0,1.65-1.06,1.51,1.51,0,0,0-1.46-2.51,2.6,2.6,0,0,0-1.82,3.26,1.53,1.53,0,0,0,1.84,1,1.51,1.51,0,0,0,1-1.84c-.06-.18,0-.08,0,0l0,.16c.05-.14.05-.16,0,0a.52.52,0,0,1-.17.22c-.06,0-.35.13-.08.06l-1.46-2.51s-.32.32-.14.18c0,0-.41.2-.19.12a1.53,1.53,0,0,0-1,1.84,1.5,1.5,0,0,0,1.84,1.05Z" transform="translate(-32.54 -41.54)"/><text class="cls-28" transform="translate(1120.33 514.8)">WEEK<tspan class="cls-29" x="144.36" y="0">L</tspan><tspan x="170.04" y="0">Y’S</tspan></text><text class="cls-30" transform="translate(1126.51 563.09)">plan it, cook it, eat it</text><path id="_Clipping_Path_13" data-name="&lt;Clipping Path&gt;" class="cls-21" d="M532.76,108.61c-2.18,10.68-6,19.79-8.51,20.74-3.14-2.91-5-10.58-5.58-22s2.85-19.38,8.56-19S535,97.51,532.76,108.61Z" transform="translate(-32.54 -41.54)"/><g class="cls-33"><path class="cls-23" d="M520.47,45.37A26.88,26.88,0,0,0,550,53.43c1.82-.61,1-3.51-.8-2.89a23.92,23.92,0,0,1-26.65-7.29c-1.26-1.47-3.37.66-2.12,2.12Z" transform="translate(-32.54 -41.54)"/><path class="cls-23" d="M523,97.83A13.52,13.52,0,0,0,531.17,99c.47-.08.27-.81-.2-.73a12.55,12.55,0,0,1-7.61-1.07c-.43-.21-.81.44-.38.65Z" transform="translate(-32.54 -41.54)"/><path class="cls-23" d="M520.45,102.09a17.15,17.15,0,0,0,11.24,2c.48-.07.27-.79-.2-.72a16.31,16.31,0,0,1-10.66-2,.38.38,0,0,0-.38.65Z" transform="translate(-32.54 -41.54)"/><path class="cls-23" d="M520.72,108.07a10.5,10.5,0,0,0,8.89,1.44.37.37,0,0,0-.2-.72,9.83,9.83,0,0,1-8.32-1.36c-.4-.27-.77.37-.37.64Z" transform="translate(-32.54 -41.54)"/><path class="cls-23" d="M521.87,114.55a15.26,15.26,0,0,0,5.49,1.13.38.38,0,0,0,0-.75,14.76,14.76,0,0,1-5.29-1.1c-.45-.18-.64.54-.2.72Z" transform="translate(-32.54 -41.54)"/><path class="cls-23" d="M526.24,90.62a11.22,11.22,0,0,0,2.61.85,2,2,0,0,0,2.23-1.69c.12-1.28-.89-1.94-2-2a22.32,22.32,0,0,0-2.58-.15,1.89,1.89,0,0,0-1.58,2.47,2.54,2.54,0,0,0,2.05,1.7,3.59,3.59,0,0,0,2.61-.35,2.53,2.53,0,0,0,1.09-2.71,1.51,1.51,0,0,0-1.84-1,1.53,1.53,0,0,0-1,1.85.49.49,0,0,1,.1-.54.38.38,0,0,1,.23-.13c0,.06-.24,0-.26,0-.32,0,.27,0-.27,0l-.18,0a.85.85,0,0,1,.45.83l-.39.66.1-.12-1.06.44,1.41.08.7,0h.24c.42,0,.32,0-.32-.21l-.38-.66,0,.12v-.79l.36-.5.76-.21a2.89,2.89,0,0,1-1-.31L527,87.73a1.5,1.5,0,1,0-.79,2.89Z" transform="translate(-32.54 -41.54)"/></g><path id="_Clipping_Path_14" data-name="&lt;Clipping Path&gt;" class="cls-24" d="M532.76,108.61c-2.18,10.68-6,19.79-8.51,20.74-3.14-2.91-5-10.58-5.58-22s2.85-19.38,8.56-19S535,97.51,532.76,108.61Z" transform="translate(-32.54 -41.54)"/><path class="cls-18" d="M528.31,88.43,523,57.23c-.24-1.42-2.41-.82-2.16.6L526.14,89c.24,1.42,2.41.82,2.17-.6Z" transform="translate(-32.54 -41.54)"/><path class="cls-18" d="M529.24,88a187.91,187.91,0,0,0-1.74-20.25c-.2-1.43-2.37-.82-2.17.6A179.55,179.55,0,0,1,527,88a1.13,1.13,0,0,0,2.25,0Z" transform="translate(-32.54 -41.54)"/><path class="cls-18" d="M530.81,87.16A154.69,154.69,0,0,0,537,60.36c.2-1.41-2-2-2.17-.6a154.69,154.69,0,0,1-6.15,26.8c-.45,1.38,1.72,2,2.17.6Z" transform="translate(-32.54 -41.54)"/><path class="cls-18" d="M530.68,85.59a146.87,146.87,0,0,1,.41-17.17c.12-1.44-2.13-1.43-2.25,0a146.87,146.87,0,0,0-.41,17.17c.05,1.45,2.3,1.45,2.25,0Z" transform="translate(-32.54 -41.54)"/><path class="cls-18" d="M529.66,89.76c3.15-7.06,10.4-11,14.12-17.67.7-1.27-1.24-2.41-1.95-1.14-3.72,6.7-11,10.58-14.11,17.68-.59,1.31,1.35,2.45,1.94,1.13Z" transform="translate(-32.54 -41.54)"/><path class="cls-20" d="M590.74,147.06c2.46-4.77,3.77-5.35,6-10.85,1.79-4.51,3-9.54,1.6-14.18-1-3.43-3.42-6.29-6-8.82-6.1-6.06-13.61-10.91-22-12.84-6.44-1.49-14.21-.73-18.12,4.59-2.71,3.69-2.84,8.87-1,13.08a22,22,0,0,0,9.24,9.85c2.49,1.49,5.23,2.66,7.34,4.66,2.71,2.57,4.09,6.2,5.69,9.58s3.69,6.84,7.11,8.36S588.84,150.79,590.74,147.06Z" transform="translate(-32.54 -41.54)"/><path class="cls-11" d="M589,144.86c2.22-4.3,3.4-4.82,5.38-9.77,1.61-4.06,2.72-8.59,1.44-12.77-.94-3.09-3.08-5.66-5.37-7.94-5.49-5.46-12.26-9.83-19.81-11.57-5.8-1.34-12.8-.66-16.32,4.14-2.43,3.32-2.55,8-.93,11.78a19.86,19.86,0,0,0,8.32,8.87c2.24,1.34,4.7,2.4,6.61,4.2,2.44,2.31,3.68,5.58,5.12,8.62s3.33,6.16,6.4,7.52A7.25,7.25,0,0,0,589,144.86Z" transform="translate(-32.54 -41.54)"/><circle class="cls-20" cx="550.45" cy="97.85" r="2.26"/><path class="cls-18" d="M514.68,197.24c-46.76,0-85.21-3.42-89.85-7.81a65.24,65.24,0,0,0-.47,7.81c0,42.07,40.44,76.17,90.32,76.17S605,239.31,605,197.24a65.24,65.24,0,0,0-.47-7.81C599.88,193.82,561.43,197.24,514.68,197.24Z" transform="translate(-32.54 -41.54)"/><path class="cls-15" d="M605,189.26a1.52,1.52,0,0,0-.75-1.12c.1.67.2,1.34.28,2A1.27,1.27,0,0,0,605,189.26Z" transform="translate(-32.54 -41.54)"/><path class="cls-15" d="M424.36,189.26a1.27,1.27,0,0,0,.47.9c.08-.68.18-1.35.28-2A1.52,1.52,0,0,0,424.36,189.26Z" transform="translate(-32.54 -41.54)"/><path class="cls-26" d="M603.07,190.16c-.08-.68-.17-1.35-.28-2-5.61-4.28-42.85-7.58-88-7.58s-82.35,3.3-88,7.58c-.1.67-.19,1.34-.27,2,4.55,4.39,42.32,7.81,88.24,7.81S598.51,194.55,603.07,190.16Z" transform="translate(-32.54 -41.54)"/><path class="cls-18" d="M449.88,226h60.31a0,0,0,0,1,0,0v2.4a3.5,3.5,0,0,1-3.5,3.5H453.38a3.5,3.5,0,0,1-3.5-3.5V226A0,0,0,0,1,449.88,226Z"/><path class="cls-7" d="M581.54,192.57l-6.76.53,39.41-47.31c.82-1,3.06-.62,4,.21h0c1,.83,1.83,3,1,4Z" transform="translate(-32.54 -41.54)"/><path class="cls-8" d="M426.87,78.73h58.87a5.67,5.67,0,0,1,5.67,5.67v79a5.67,5.67,0,0,1-5.67,5.67H426.87a0,0,0,0,1,0,0V78.73A0,0,0,0,1,426.87,78.73Z" transform="translate(-9.37 272.35) rotate(-38.65)"/><path class="cls-8" d="M435.78,98.34h10.27a0,0,0,0,1,0,0v102a0,0,0,0,1,0,0H435.78a8.5,8.5,0,0,1-8.5-8.5v-85a8.5,8.5,0,0,1,8.5-8.5Z" transform="translate(-30.19 263.89) rotate(-38.65)"/><path class="cls-9" d="M436.12,86.28H495A5.67,5.67,0,0,1,500.66,92v79a5.67,5.67,0,0,1-5.67,5.67H436.12a0,0,0,0,1,0,0V86.28A0,0,0,0,1,436.12,86.28Z" transform="translate(-12.06 279.78) rotate(-38.65)"/><rect class="cls-10" x="432.61" y="111.37" width="42.24" height="3.52" transform="translate(-3.83 266.61) rotate(-38.65)"/><rect class="cls-10" x="442.84" y="117.85" width="31.68" height="2.93" transform="translate(-6.61 271.06) rotate(-38.65)"/><circle class="cls-11" cx="446.93" cy="103.78" r="19.51"/><path class="cls-12" d="M490.76,142.22c1.3,6.29-.8,13.73-8.7,15.37-6.28,1.3-16.53-8.05-17.83-14.34s4.67-10.82,12.53-10.31C483.36,128.41,489.46,135.94,490.76,142.22Z" transform="translate(-32.54 -41.54)"/><rect class="cls-13" x="474.2" y="154.03" width="16.13" height="3.82" transform="translate(-54.12 59.29) rotate(-11.68)"/><path class="cls-14" d="M488,147.29a16.22,16.22,0,0,0-2.89-8.62,14.8,14.8,0,0,0-2.24-2.5" transform="translate(-32.54 -41.54)"/><path class="cls-14" d="M485,147.1a16.22,16.22,0,0,0-2.89-8.62,15.2,15.2,0,0,0-2.24-2.5" transform="translate(-32.54 -41.54)"/><path class="cls-15" d="M409.07,109.79a5.68,5.68,0,0,0-.51.47c-.19.13-.39.24-.57.39-2.62,2.09-3.51,5.33-2,7.23s4.87,1.74,7.48-.35c.19-.15.34-.32.51-.48a5.35,5.35,0,0,0,.58-.39l44.48-35.57-5.5-6.87Z" transform="translate(-32.54 -41.54)"/><ellipse id="_Ellipse_10" data-name="&lt;Ellipse&gt;" class="cls-2" cx="563.41" cy="177.37" rx="11.2" ry="13.57" transform="translate(258.49 659.95) rotate(-80.01)"/><g class="cls-34"><path class="cls-2" d="M538.25,157.84q1.53,5.39,3.25,10.71" transform="translate(-32.54 -41.54)"/><path class="cls-2" d="M535.05,156.06l6.2,9" transform="translate(-32.54 -41.54)"/><path class="cls-2" d="M510.74,155.17A75.15,75.15,0,0,0,523.21,173c1.33,1.41,3.45-.72,2.12-2.12a72.28,72.28,0,0,1-12-17.17c-.87-1.73-3.46-.21-2.6,1.51Z" transform="translate(-32.54 -41.54)"/><path class="cls-17" d="M570.43,174.18c1.57.9,1.93,2.58,2.24,4.24.17,1,1.62.54,1.44-.4-.37-2.06-1-4-2.92-5.13a.75.75,0,0,0-.76,1.29Z" transform="translate(-32.54 -41.54)"/></g><path class="cls-18" d="M565.8,166.94a6.38,6.38,0,0,0,1.15-3.33l-1.47.2a7.59,7.59,0,0,1,.32,1.63,4.1,4.1,0,0,1,0,.7.66.66,0,0,1,0,.24c0,.17-.13.25-.33.26l.53-.53a2.17,2.17,0,0,1-.76,0c-.94-.14-1.35,1.31-.4,1.44a4.09,4.09,0,0,0,1.56,0,.74.74,0,0,0,.52-.52,1.19,1.19,0,0,0-1.65-1.42,1.24,1.24,0,0,0,0,2.17,1.4,1.4,0,0,0,2-1,6.68,6.68,0,0,0-.32-3.37.75.75,0,0,0-1.47.2,4.92,4.92,0,0,1-1,2.58c-.56.79.74,1.54,1.3.75Z" transform="translate(-32.54 -41.54)"/><path class="cls-18" d="M566.24,168.14a5,5,0,0,1,3.57,1.68c.65.71,1.71-.35,1.06-1.06a6.51,6.51,0,0,0-4.63-2.12.75.75,0,0,0,0,1.5Z" transform="translate(-32.54 -41.54)"/><path class="cls-18" d="M566.66,167.8a34.43,34.43,0,0,0,3.66-.25c.95-.12,1-1.62,0-1.5a34.43,34.43,0,0,1-3.66.25.75.75,0,0,0,0,1.5Z" transform="translate(-32.54 -41.54)"/><path class="cls-18" d="M565.58,166.16a3.67,3.67,0,0,1-2.65-1.67c-.52-.82-1.82-.07-1.3.75a5.12,5.12,0,0,0,3.55,2.37c1,.14,1.36-1.31.4-1.45Z" transform="translate(-32.54 -41.54)"/><path class="cls-18" d="M565,167.93a2.13,2.13,0,0,1,1.17,1.56.78.78,0,0,0,.75.75.76.76,0,0,0,.75-.75,3.64,3.64,0,0,0-1.92-2.85c-.85-.44-1.61.85-.75,1.29Z" transform="translate(-32.54 -41.54)"/><path class="cls-18" d="M564.44,166.67a10,10,0,0,1-1.67-.08,9.84,9.84,0,0,0-2.16.28c-.94.21-.55,1.66.4,1.44a11,11,0,0,1,3-.16,1.81,1.81,0,0,0,1.7-.72c.57-.77-.73-1.52-1.3-.76Z" transform="translate(-32.54 -41.54)"/><path class="cls-19" d="M547.8,145.86c3.28,2.2,1.12,7.78-1.71,10.54s-6.63,4.41-9.3,7.32c-4.49,4.92-1.06,16-8.77,19.44-5.24,2.36-9.36.18-12.53-1-6.28-3.28-5.74-9.1-4.56-13.77,1.2-3.44,1.2-3.44,4.66-6.43,5-3.69,9.52-7.19,14.81-10.4a64,64,0,0,1,9.71-5.25C544.17,145,544.78,143.83,547.8,145.86Z" transform="translate(-32.54 -41.54)"/><path class="cls-19" d="M546.74,146.92c1.34,1.23,1,4.2.29,5.65a11.56,11.56,0,0,1-2.55,3.26c-1.73,1.59-3.8,2.76-5.67,4.17a13.47,13.47,0,0,0-5.13,6.24c-1.06,2.88-1.14,6-1.83,9-1.44,6.18-6.38,8.56-12.47,6.81-5.74-1.65-8.5-5.69-7.37-11.57.88-4.63,3.64-6.64,7.28-9.38,4.26-3.22,8.63-6.24,13.19-9,3.64-2.21,10.34-7.38,14.56-4.9a1.5,1.5,0,0,0,1.52-2.59c-4.85-2.84-10.59.81-14.95,3.31a147.37,147.37,0,0,0-19.08,13c-7,5.68-8.67,18.2.56,22.71,4.82,2.36,11.12,3.22,15.6-.34,3.9-3.08,4.15-8.18,5-12.69a12.12,12.12,0,0,1,5.23-8.43c2.41-1.79,5.11-3.26,7.06-5.59,2.76-3.3,4.47-8.48.89-11.76C547.44,143.49,545.31,145.61,546.74,146.92Z" transform="translate(-32.54 -41.54)"/><path class="cls-18" d="M548,147.26l.13,4.31,2.94-.4a7.31,7.31,0,0,1-.36-3.5,1.5,1.5,0,0,0-1.5-1.5,1.54,1.54,0,0,0-1.5,1.5,9.25,9.25,0,0,0,.47,4.3c.54,1.51,3,1.38,3-.4l-.13-4.31c-.06-1.93-3.06-1.94-3,0Z" transform="translate(-32.54 -41.54)"/><path class="cls-18" d="M548.42,145.88a9.16,9.16,0,0,0-2.86,3.29c-.44.88.07,2.42,1.3,2.25A3.43,3.43,0,0,0,550,148a1.5,1.5,0,0,0-3,0c0,.3.1-.07,0,.19.13-.32-.16.31-.08.14l-.06.05c-.19.12-.25.1,0,.06l1.29,2.26a6,6,0,0,1,1.79-2.21,1.54,1.54,0,0,0,.53-2.05,1.51,1.51,0,0,0-2.05-.54Z" transform="translate(-32.54 -41.54)"/><path class="cls-18" d="M549.63,145.49a6.19,6.19,0,0,0-6.31,1.23c-1.2,1,.11,2.8,1.46,2.5a9,9,0,0,1,3.36-.09c1.88.31,2.7-2.58.79-2.9a12.83,12.83,0,0,0-4.94.1l1.46,2.51a3.22,3.22,0,0,1,3.38-.46,1.51,1.51,0,0,0,1.85-1,1.54,1.54,0,0,0-1-1.85Z" transform="translate(-32.54 -41.54)"/><path class="cls-18" d="M548.07,144.78a29.46,29.46,0,0,1-4.8-.47l.89.69c-1,1-1.14,1.48-.32,1.55l.38.1c.43.11.86.23,1.28.37.79.24,1.57.53,2.34.84a1.51,1.51,0,0,0,1.85-1.05,1.53,1.53,0,0,0-1.05-1.84,27.91,27.91,0,0,0-4-1.31c-1.26-.3-2.74-.31-3.27,1.14s.66,2.42,2,2.56c1.55.16,3.12.28,4.68.42,1.92.18,1.91-2.82,0-3Z" transform="translate(-32.54 -41.54)"/><path class="cls-18" d="M550.07,146.1a4.05,4.05,0,0,0-2.7-2.49c-.62-.21-2.67-.27-2.92-1-.64-1.81-3.54-1-2.9.79a4,4,0,0,0,2.68,2.5c.6.22,2.68.28,2.95,1,.66,1.8,3.56,1,2.89-.79Z" transform="translate(-32.54 -41.54)"/><path class="cls-18" d="M548.94,146.91a4.29,4.29,0,0,0,1.86-1.22,1.51,1.51,0,0,0-1.46-2.5,2.82,2.82,0,0,0-2,3.56,1.55,1.55,0,0,0,1.85,1.05,1.52,1.52,0,0,0,1-1.85c-.12-.36,0,.3,0-.08,0,.17,0,.21,0,.09s0-.07,0,.08c.15-.26-.17.12.07-.08-.07.06-.39.19-.11.12l-1.46-2.51c0,.05-.42.41-.24.27-.06,0-.53.25-.3.17a1.55,1.55,0,0,0-1,1.85,1.52,1.52,0,0,0,1.85,1Z" transform="translate(-32.54 -41.54)"/><text class="cls-28" transform="translate(351.77 299.63)">WEEK<tspan class="cls-29" x="144.36" y="0">L</tspan><tspan x="170.04" y="0">Y’S</tspan></text><text class="cls-35" transform="translate(357.94 365.38)">plan it, cook it, eat it</text><line class="cls-36" x1="356.27" y1="317.7" x2="599.11" y2="317.7"/><path id="_Clipping_Path_15" data-name="&lt;Clipping Path&gt;" class="cls-37" d="M884.52,108.61c-2.18,10.68-6,19.79-8.5,20.74-3.15-2.91-5-10.58-5.59-22s2.86-19.38,8.57-19S886.79,97.51,884.52,108.61Z" transform="translate(-32.54 -41.54)"/><g class="cls-38"><path class="cls-39" d="M872.24,45.37a26.88,26.88,0,0,0,29.57,8.06c1.82-.61,1-3.51-.8-2.89a23.92,23.92,0,0,1-26.65-7.29c-1.26-1.47-3.38.66-2.12,2.12Z" transform="translate(-32.54 -41.54)"/><path class="cls-39" d="M874.75,97.83A13.5,13.5,0,0,0,882.93,99c.48-.08.28-.81-.2-.73a12.53,12.53,0,0,1-7.6-1.07c-.44-.21-.82.44-.38.65Z" transform="translate(-32.54 -41.54)"/><path class="cls-39" d="M872.22,102.09a17.13,17.13,0,0,0,11.24,2c.47-.07.27-.79-.2-.72a16.34,16.34,0,0,1-10.67-2,.37.37,0,0,0-.37.65Z" transform="translate(-32.54 -41.54)"/><path class="cls-39" d="M872.48,108.07a10.53,10.53,0,0,0,8.9,1.44.37.37,0,0,0-.2-.72,9.83,9.83,0,0,1-8.32-1.36c-.4-.27-.78.37-.38.64Z" transform="translate(-32.54 -41.54)"/><path class="cls-39" d="M873.64,114.55a15.17,15.17,0,0,0,5.49,1.13.38.38,0,0,0,0-.75,14.76,14.76,0,0,1-5.29-1.1c-.45-.18-.64.54-.2.72Z" transform="translate(-32.54 -41.54)"/><path class="cls-39" d="M878,90.62a11.3,11.3,0,0,0,2.62.85,2,2,0,0,0,2.23-1.69c.12-1.28-.89-1.94-2-2a22.36,22.36,0,0,0-2.59-.15,1.9,1.9,0,0,0-1.58,2.47,2.55,2.55,0,0,0,2.06,1.7,3.59,3.59,0,0,0,2.61-.35,2.53,2.53,0,0,0,1.09-2.71,1.52,1.52,0,0,0-1.85-1,1.54,1.54,0,0,0-1,1.85.5.5,0,0,1,.09-.54.41.41,0,0,1,.23-.13c0,.06-.23,0-.26,0-.31,0,.27,0-.26,0l-.19,0a.83.83,0,0,1,.45.83l-.38.66.09-.12-1.06.44,1.41.08.71,0h.23c.43,0,.32,0-.31-.21l-.39-.66,0,.12v-.79l.36-.5.76-.21a2.94,2.94,0,0,1-1-.31l-1.2-.43a1.5,1.5,0,1,0-.8,2.89Z" transform="translate(-32.54 -41.54)"/></g><path id="_Clipping_Path_16" data-name="&lt;Clipping Path&gt;" class="cls-40" d="M884.52,108.61c-2.18,10.68-6,19.79-8.5,20.74-3.15-2.91-5-10.58-5.59-22s2.86-19.38,8.57-19S886.79,97.51,884.52,108.61Z" transform="translate(-32.54 -41.54)"/><path class="cls-41" d="M880.08,88.43l-5.29-31.2c-.24-1.42-2.41-.82-2.17.6L877.91,89c.24,1.42,2.41.82,2.17-.6Z" transform="translate(-32.54 -41.54)"/><path class="cls-41" d="M881,88a185.38,185.38,0,0,0-1.73-20.25c-.2-1.43-2.37-.82-2.17.6A182,182,0,0,1,878.75,88c0,1.45,2.3,1.45,2.25,0Z" transform="translate(-32.54 -41.54)"/><path class="cls-41" d="M882.57,87.16a154.71,154.71,0,0,0,6.16-26.8c.19-1.41-2-2-2.17-.6a154.71,154.71,0,0,1-6.16,26.8c-.44,1.38,1.73,2,2.17.6Z" transform="translate(-32.54 -41.54)"/><path class="cls-41" d="M882.45,85.59a146.87,146.87,0,0,1,.41-17.17c.12-1.44-2.14-1.43-2.25,0a146.87,146.87,0,0,0-.41,17.17c0,1.45,2.3,1.45,2.25,0Z" transform="translate(-32.54 -41.54)"/><path class="cls-41" d="M881.43,89.76c3.15-7.06,10.39-11,14.11-17.67.7-1.27-1.24-2.41-1.94-1.14-3.72,6.7-11,10.58-14.12,17.68-.58,1.31,1.36,2.45,1.95,1.13Z" transform="translate(-32.54 -41.54)"/><path class="cls-20" d="M942.5,147.06c2.47-4.77,3.78-5.35,6-10.85,1.8-4.51,3-9.54,1.61-14.18-1-3.43-3.43-6.29-6-8.82-6.1-6.06-13.62-10.91-22-12.84-6.43-1.49-14.21-.73-18.11,4.59-2.71,3.69-2.85,8.87-1,13.08a22.1,22.1,0,0,0,9.24,9.85c2.5,1.49,5.23,2.66,7.34,4.66,2.72,2.57,4.1,6.2,5.69,9.58s3.7,6.84,7.11,8.36S940.61,150.79,942.5,147.06Z" transform="translate(-32.54 -41.54)"/><path class="cls-42" d="M940.76,144.86c2.21-4.3,3.4-4.82,5.37-9.77,1.62-4.06,2.72-8.59,1.45-12.77-.94-3.09-3.09-5.66-5.38-7.94-5.49-5.46-12.26-9.83-19.8-11.57-5.8-1.34-12.8-.66-16.32,4.14-2.44,3.32-2.56,8-.94,11.78a19.92,19.92,0,0,0,8.32,8.87c2.25,1.34,4.71,2.4,6.61,4.2,2.45,2.31,3.69,5.58,5.13,8.62s3.32,6.16,6.4,7.52A7.25,7.25,0,0,0,940.76,144.86Z" transform="translate(-32.54 -41.54)"/><circle class="cls-20" cx="902.21" cy="97.85" r="2.26"/><path class="cls-41" d="M866.44,197.24c-46.75,0-85.2-3.42-89.84-7.81a65.24,65.24,0,0,0-.47,7.81c0,42.07,40.43,76.17,90.31,76.17s90.31-34.1,90.31-76.17a65.24,65.24,0,0,0-.47-7.81C951.65,193.82,913.19,197.24,866.44,197.24Z" transform="translate(-32.54 -41.54)"/><path class="cls-15" d="M956.75,189.26a1.5,1.5,0,0,0-.74-1.12c.1.67.19,1.34.27,2A1.27,1.27,0,0,0,956.75,189.26Z" transform="translate(-32.54 -41.54)"/><path class="cls-15" d="M776.13,189.26a1.27,1.27,0,0,0,.47.9c.08-.68.17-1.35.28-2A1.49,1.49,0,0,0,776.13,189.26Z" transform="translate(-32.54 -41.54)"/><path class="cls-43" d="M954.83,190.16c-.08-.68-.17-1.35-.27-2-5.61-4.28-42.86-7.58-88-7.58s-82.35,3.3-88,7.58c-.1.67-.2,1.34-.28,2,4.56,4.39,42.33,7.81,88.24,7.81S950.28,194.55,954.83,190.16Z" transform="translate(-32.54 -41.54)"/><path class="cls-41" d="M801.65,226H862a0,0,0,0,1,0,0v2.4a3.5,3.5,0,0,1-3.5,3.5H805.15a3.5,3.5,0,0,1-3.5-3.5V226A0,0,0,0,1,801.65,226Z"/><path class="cls-7" d="M933.31,192.57l-6.76.53L966,145.79c.83-1,3.07-.62,4,.21h0c1,.83,1.82,3,1,4Z" transform="translate(-32.54 -41.54)"/><path class="cls-44" d="M778.64,78.73H837.5a5.67,5.67,0,0,1,5.67,5.67v79a5.67,5.67,0,0,1-5.67,5.67H778.64a0,0,0,0,1,0,0V78.73A0,0,0,0,1,778.64,78.73Z" transform="translate(67.67 492.05) rotate(-38.65)"/><path class="cls-44" d="M787.55,98.34h10.27a0,0,0,0,1,0,0v102a0,0,0,0,1,0,0H787.55a8.5,8.5,0,0,1-8.5-8.5v-85a8.5,8.5,0,0,1,8.5-8.5Z" transform="translate(46.86 483.58) rotate(-38.65)"/><path class="cls-45" d="M787.89,86.28h58.87A5.67,5.67,0,0,1,852.43,92v79a5.67,5.67,0,0,1-5.67,5.67H787.89a0,0,0,0,1,0,0V86.28A0,0,0,0,1,787.89,86.28Z" transform="translate(64.98 499.48) rotate(-38.65)"/><rect class="cls-46" x="784.38" y="111.37" width="42.24" height="3.52" transform="translate(73.22 486.31) rotate(-38.65)"/><rect class="cls-46" x="794.61" y="117.85" width="31.68" height="2.93" transform="translate(70.44 490.76) rotate(-38.65)"/><circle class="cls-42" cx="798.7" cy="103.78" r="19.51"/><path class="cls-12" d="M842.52,142.22c1.3,6.29-.79,13.73-8.69,15.37-6.29,1.3-16.53-8.05-17.83-14.34s4.66-10.82,12.53-10.31C835.13,128.41,841.22,135.94,842.52,142.22Z" transform="translate(-32.54 -41.54)"/><rect class="cls-13" x="825.97" y="154.03" width="16.13" height="3.82" transform="translate(-46.84 130.49) rotate(-11.68)"/><path class="cls-14" d="M839.74,147.29a16.22,16.22,0,0,0-2.89-8.62,14.8,14.8,0,0,0-2.24-2.5" transform="translate(-32.54 -41.54)"/><path class="cls-14" d="M836.76,147.1a16.34,16.34,0,0,0-2.9-8.62,15.65,15.65,0,0,0-2.23-2.5" transform="translate(-32.54 -41.54)"/><path class="cls-15" d="M760.84,109.78a5.88,5.88,0,0,0-.51.48c-.2.13-.39.24-.58.39-2.61,2.09-3.5,5.33-2,7.23s4.86,1.74,7.48-.35c.18-.15.34-.32.51-.48a5.23,5.23,0,0,0,.57-.39l44.48-35.57-5.49-6.87Z" transform="translate(-32.54 -41.54)"/><ellipse id="_Ellipse_11" data-name="&lt;Ellipse&gt;" class="cls-3" cx="915.18" cy="177.37" rx="11.2" ry="13.57" transform="translate(549.26 1006.39) rotate(-80.01)"/><g class="cls-47"><path class="cls-3" d="M890,157.84q1.51,5.39,3.25,10.71" transform="translate(-32.54 -41.54)"/><path class="cls-3" d="M886.82,156.06l6.2,9" transform="translate(-32.54 -41.54)"/><path class="cls-3" d="M862.51,155.17A75.15,75.15,0,0,0,875,173c1.32,1.41,3.44-.72,2.12-2.12a72.32,72.32,0,0,1-12-17.17c-.87-1.73-3.46-.21-2.59,1.51Z" transform="translate(-32.54 -41.54)"/><path class="cls-48" d="M922.2,174.18c1.57.9,1.93,2.58,2.23,4.24.18,1,1.63.54,1.45-.4-.38-2.06-1-4-2.93-5.14a.75.75,0,0,0-.75,1.3Z" transform="translate(-32.54 -41.54)"/></g><path class="cls-41" d="M917.56,166.94a6.39,6.39,0,0,0,1.16-3.33l-1.48.2a8.32,8.32,0,0,1,.33,1.62,5.67,5.67,0,0,1,0,.71,1,1,0,0,1,0,.24c0,.17-.13.25-.33.26l.52-.53a2.1,2.1,0,0,1-.75,0c-1-.14-1.35,1.31-.4,1.44a4,4,0,0,0,1.55,0,.73.73,0,0,0,.53-.52,1.19,1.19,0,0,0-1.66-1.42,1.24,1.24,0,0,0,0,2.17,1.4,1.4,0,0,0,2-1,6.68,6.68,0,0,0-.32-3.37.75.75,0,0,0-1.47.2,5,5,0,0,1-1,2.58c-.56.79.74,1.54,1.29.75Z" transform="translate(-32.54 -41.54)"/><path class="cls-41" d="M918,168.14a5,5,0,0,1,3.58,1.68c.65.71,1.71-.35,1.06-1.06a6.53,6.53,0,0,0-4.64-2.12c-1,0-1,1.47,0,1.5Z" transform="translate(-32.54 -41.54)"/><path class="cls-41" d="M918.42,167.8a34.62,34.62,0,0,0,3.67-.25c.95-.12,1-1.62,0-1.5a34.62,34.62,0,0,1-3.67.25.75.75,0,0,0,0,1.5Z" transform="translate(-32.54 -41.54)"/><path class="cls-41" d="M917.35,166.16a3.69,3.69,0,0,1-2.66-1.67c-.51-.82-1.81-.07-1.29.75a5.1,5.1,0,0,0,3.55,2.37c.95.14,1.35-1.31.4-1.45Z" transform="translate(-32.54 -41.54)"/><path class="cls-41" d="M916.71,167.93a2.14,2.14,0,0,1,1.18,1.56.77.77,0,0,0,.75.75.76.76,0,0,0,.75-.75,3.64,3.64,0,0,0-1.92-2.85c-.86-.44-1.62.85-.76,1.29Z" transform="translate(-32.54 -41.54)"/><path class="cls-41" d="M916.21,166.67a10.09,10.09,0,0,1-1.68-.08,9.84,9.84,0,0,0-2.16.28c-.94.21-.54,1.66.4,1.44a11,11,0,0,1,3-.16,1.79,1.79,0,0,0,1.7-.72c.58-.77-.72-1.52-1.29-.76Z" transform="translate(-32.54 -41.54)"/><path class="cls-49" d="M899.57,145.86c3.28,2.2,1.11,7.78-1.72,10.54s-6.63,4.41-9.29,7.32c-4.5,4.92-1.06,16-8.78,19.44-5.23,2.36-9.35.18-12.53-1-6.27-3.28-5.73-9.1-4.55-13.77,1.19-3.44,1.19-3.44,4.66-6.43,5-3.69,9.51-7.19,14.81-10.4a63.5,63.5,0,0,1,9.71-5.25C895.94,145,896.55,143.83,899.57,145.86Z" transform="translate(-32.54 -41.54)"/><path class="cls-49" d="M898.51,146.92c1.34,1.23,1,4.2.29,5.65a11.77,11.77,0,0,1-2.56,3.26c-1.73,1.59-3.8,2.76-5.67,4.17a13.59,13.59,0,0,0-5.13,6.24c-1.05,2.88-1.13,6-1.83,9-1.44,6.18-6.37,8.56-12.46,6.81-5.75-1.65-8.5-5.69-7.37-11.57.88-4.63,3.64-6.64,7.27-9.38a157.65,157.65,0,0,1,13.2-9c3.63-2.21,10.33-7.38,14.56-4.9a1.5,1.5,0,0,0,1.51-2.59c-4.84-2.84-10.59.81-14.94,3.31a147.48,147.48,0,0,0-19.09,13c-7,5.68-8.67,18.2.56,22.71,4.82,2.36,11.13,3.22,15.61-.34,3.89-3.08,4.14-8.18,5-12.69a12.12,12.12,0,0,1,5.23-8.43c2.41-1.79,5.11-3.26,7.06-5.59,2.75-3.3,4.47-8.48.89-11.76C899.21,143.49,897.08,145.61,898.51,146.92Z" transform="translate(-32.54 -41.54)"/><path class="cls-41" d="M899.74,147.26l.13,4.31,3-.4a7.19,7.19,0,0,1-.36-3.5c.11-.81-.77-1.5-1.5-1.5a1.54,1.54,0,0,0-1.5,1.5,9.12,9.12,0,0,0,.47,4.3c.54,1.51,3,1.38,2.94-.4l-.13-4.31c0-1.93-3-1.94-3,0Z" transform="translate(-32.54 -41.54)"/><path class="cls-41" d="M900.19,145.88a9.06,9.06,0,0,0-2.86,3.29c-.45.88.07,2.42,1.29,2.25a3.43,3.43,0,0,0,3.15-3.44,1.5,1.5,0,0,0-3,0c0,.3.1-.07,0,.19.14-.32-.16.31-.07.14l-.07.05c-.18.12-.24.1,0,.06l1.3,2.26a6.13,6.13,0,0,1,1.78-2.21,1.53,1.53,0,0,0,.54-2.05,1.51,1.51,0,0,0-2-.54Z" transform="translate(-32.54 -41.54)"/><path class="cls-41" d="M901.4,145.49a6.19,6.19,0,0,0-6.31,1.23c-1.21,1,.11,2.8,1.46,2.5a9,9,0,0,1,3.35-.09c1.89.31,2.7-2.58.8-2.9a12.89,12.89,0,0,0-5,.1l1.46,2.51a3.24,3.24,0,0,1,3.39-.46,1.51,1.51,0,0,0,1.85-1,1.54,1.54,0,0,0-1.05-1.85Z" transform="translate(-32.54 -41.54)"/><path class="cls-41" d="M899.84,144.78a29.58,29.58,0,0,1-4.81-.47l.9.69c-1,1-1.15,1.48-.32,1.55l.37.1c.43.11.86.23,1.29.37.79.24,1.57.53,2.34.84a1.5,1.5,0,0,0,1.84-1.05A1.52,1.52,0,0,0,900.4,145a28.2,28.2,0,0,0-4-1.31c-1.27-.3-2.75-.31-3.27,1.14s.65,2.42,2,2.56c1.56.16,3.13.28,4.69.42,1.92.18,1.91-2.82,0-3Z" transform="translate(-32.54 -41.54)"/><path class="cls-41" d="M901.83,146.1a4,4,0,0,0-2.69-2.49c-.62-.21-2.67-.27-2.93-1-.63-1.81-3.53-1-2.89.79a4,4,0,0,0,2.68,2.5c.6.22,2.68.28,2.94,1,.67,1.8,3.57,1,2.89-.79Z" transform="translate(-32.54 -41.54)"/><path class="cls-41" d="M900.7,146.91a4.26,4.26,0,0,0,1.87-1.22,1.51,1.51,0,0,0-1.46-2.5,2.82,2.82,0,0,0-2,3.56A1.5,1.5,0,1,0,902,146c-.13-.36,0,.3,0-.08,0,.17,0,.21,0,.09s0-.07,0,.08c.15-.26-.16.12.08-.08-.08.06-.39.19-.12.12l-1.45-2.51c-.05.05-.43.41-.24.27-.06,0-.53.25-.31.17a1.54,1.54,0,0,0-1,1.85,1.51,1.51,0,0,0,1.84,1Z" transform="translate(-32.54 -41.54)"/><text class="cls-28" transform="translate(703.53 299.63)">WEEK<tspan class="cls-29" x="144.36" y="0">L</tspan><tspan x="170.04" y="0">Y’S</tspan></text><text class="cls-35" transform="translate(709.71 365.38)">plan it, cook it, eat it</text><line class="cls-36" x1="708.03" y1="317.7" x2="950.88" y2="317.7"/><circle class="cls-50" cx="1230.44" cy="142.67" r="137.67"/><path id="_Clipping_Path_17" data-name="&lt;Clipping Path&gt;" class="cls-21" d="M1285,129.49c-2.1,10.28-5.75,19-8.19,20-3-2.8-4.77-10.18-5.37-21.13s2.75-18.65,8.24-18.25S1287.13,118.81,1285,129.49Z" transform="translate(-32.54 -41.54)"/><g class="cls-51"><path class="cls-23" d="M1273.08,68.67a25.92,25.92,0,0,0,28.52,7.78c1.82-.61,1-3.51-.8-2.89a22.94,22.94,0,0,1-25.59-7c-1.26-1.47-3.38.66-2.13,2.12Z" transform="translate(-32.54 -41.54)"/><path class="cls-23" d="M1275.54,119.13a12.9,12.9,0,0,0,7.88,1.11c.48-.08.28-.81-.2-.73a12,12,0,0,1-7.3-1c-.44-.21-.82.44-.38.65Z" transform="translate(-32.54 -41.54)"/><path class="cls-23" d="M1273.1,123.23a16.56,16.56,0,0,0,10.83,2c.47-.08.27-.8-.2-.73a15.59,15.59,0,0,1-10.25-1.89c-.42-.23-.8.41-.38.65Z" transform="translate(-32.54 -41.54)"/><path class="cls-23" d="M1273.35,129a10.16,10.16,0,0,0,8.58,1.38.37.37,0,0,0-.2-.72,9.39,9.39,0,0,1-8-1.31c-.4-.27-.77.38-.38.65Z" transform="translate(-32.54 -41.54)"/><path class="cls-23" d="M1274.47,135.23a14.74,14.74,0,0,0,5.29,1.08.38.38,0,0,0,0-.75,14.07,14.07,0,0,1-5.09-1.05c-.45-.19-.64.54-.2.72Z" transform="translate(-32.54 -41.54)"/><path class="cls-23" d="M1278.66,112.24a11.47,11.47,0,0,0,2.53.81,1.93,1.93,0,0,0,2.2-1.67c.13-1.26-.87-1.93-2-2a20.63,20.63,0,0,0-2.48-.15,1.88,1.88,0,0,0-1.58,2.45,2.49,2.49,0,0,0,2,1.67,3.43,3.43,0,0,0,2.55-.34,2.5,2.5,0,0,0,1.08-2.67,1.5,1.5,0,1,0-2.89.79c-.23-1.09.11-.24.35-.71,0,.08-.21,0-.23,0-.31,0,.27,0-.25,0l-.17,0a.87.87,0,0,1,.47.87l-.39.66.1-.11-1.06.44,1.35.08.68,0,.23,0c.42,0,.31,0-.34-.22l-.39-.67,0,.13v-.8l.38-.51.75-.21a3.2,3.2,0,0,1-1-.3l-1.15-.42a1.52,1.52,0,0,0-1.85,1,1.54,1.54,0,0,0,1.05,1.85Z" transform="translate(-32.54 -41.54)"/></g><path id="_Clipping_Path_18" data-name="&lt;Clipping Path&gt;" class="cls-24" d="M1285,129.49c-2.1,10.28-5.75,19-8.19,20-3-2.8-4.77-10.18-5.37-21.13s2.75-18.65,8.24-18.25S1287.13,118.81,1285,129.49Z" transform="translate(-32.54 -41.54)"/><path class="cls-18" d="M1280.71,110.06l-5.09-30c-.24-1.42-2.41-.82-2.16.6l5.08,30c.24,1.43,2.41.82,2.17-.6Z" transform="translate(-32.54 -41.54)"/><path class="cls-18" d="M1281.6,109.69a177.06,177.06,0,0,0-1.67-19.5c-.2-1.43-2.37-.82-2.17.6a173.26,173.26,0,0,1,1.59,18.9c.05,1.45,2.3,1.45,2.25,0Z" transform="translate(-32.54 -41.54)"/><path class="cls-18" d="M1283.11,108.87a150.06,150.06,0,0,0,5.93-25.8c.19-1.41-2-2-2.17-.59a150.16,150.16,0,0,1-5.93,25.79c-.44,1.38,1.73,2,2.17.6Z" transform="translate(-32.54 -41.54)"/><path class="cls-18" d="M1283,107.34a142.33,142.33,0,0,1,.4-16.52c.12-1.44-2.13-1.43-2.25,0a142.33,142.33,0,0,0-.4,16.52c0,1.45,2.3,1.45,2.25,0Z" transform="translate(-32.54 -41.54)"/><path class="cls-18" d="M1282,111.38c3-6.8,10-10.56,13.58-17,.7-1.27-1.24-2.41-1.94-1.14-3.58,6.45-10.54,10.19-13.59,17-.58,1.31,1.36,2.46,2,1.14Z" transform="translate(-32.54 -41.54)"/><path class="cls-20" d="M1340.75,166.5c2.36-4.6,3.63-5.15,5.74-10.45,1.73-4.33,2.9-9.18,1.55-13.64-1-3.3-3.3-6-5.75-8.49-5.87-5.84-13.1-10.5-21.17-12.36-6.19-1.43-13.67-.7-17.43,4.42-2.61,3.55-2.74,8.54-1,12.59a21.16,21.16,0,0,0,8.89,9.48c2.4,1.43,5,2.56,7.06,4.48,2.61,2.48,3.94,6,5.48,9.22s3.55,6.58,6.84,8S1338.92,170.09,1340.75,166.5Z" transform="translate(-32.54 -41.54)"/><path class="cls-11" d="M1339.07,164.38c2.13-4.14,3.27-4.64,5.17-9.41,1.55-3.9,2.61-8.26,1.39-12.28a19.12,19.12,0,0,0-5.17-7.64c-5.29-5.26-11.8-9.46-19.07-11.14-5.57-1.28-12.31-.63-15.69,4-2.35,3.19-2.47,7.68-.91,11.33a19.14,19.14,0,0,0,8,8.53c2.16,1.29,4.53,2.31,6.36,4.05,2.35,2.22,3.55,5.37,4.93,8.3s3.2,5.92,6.16,7.24A7,7,0,0,0,1339.07,164.38Z" transform="translate(-32.54 -41.54)"/><circle class="cls-20" cx="1300.74" cy="117.57" r="2.18"/><path class="cls-18" d="M1267.55,214.79c-45,0-82-3.3-86.46-7.52a62.36,62.36,0,0,0-.45,7.52c0,40.48,38.91,73.29,86.91,73.29s86.91-32.81,86.91-73.29a64.47,64.47,0,0,0-.45-7.52C1349.54,211.49,1312.54,214.79,1267.55,214.79Z" transform="translate(-32.54 -41.54)"/><path class="cls-15" d="M1354.46,207.11a1.45,1.45,0,0,0-.72-1.08c.1.64.19,1.29.27,1.94A1.24,1.24,0,0,0,1354.46,207.11Z" transform="translate(-32.54 -41.54)"/><path class="cls-15" d="M1180.64,207.11a1.2,1.2,0,0,0,.45.86c.08-.65.17-1.3.27-1.94A1.45,1.45,0,0,0,1180.64,207.11Z" transform="translate(-32.54 -41.54)"/><path class="cls-26" d="M1352.61,208c-.08-.65-.17-1.3-.26-1.94-5.4-4.12-41.24-7.3-84.65-7.3s-79.25,3.18-84.66,7.3c-.09.64-.18,1.29-.26,1.94,4.39,4.22,40.73,7.52,84.92,7.52S1348.23,212.19,1352.61,208Z" transform="translate(-32.54 -41.54)"/><path class="cls-18" d="M1204,240.86h58a0,0,0,0,1,0,0v2.9a2.78,2.78,0,0,1-2.78,2.78h-52.48a2.78,2.78,0,0,1-2.78-2.78v-2.9A0,0,0,0,1,1204,240.86Z"/><path class="cls-7" d="M1331.9,210.29l-6.51.51,37.92-45.53c.79-.92,3-.59,3.88.2h0c.92.8,1.75,2.89,1,3.81Z" transform="translate(-32.54 -41.54)"/><path class="cls-8" d="M1183.05,100.74h57.6a4.5,4.5,0,0,1,4.5,4.5v77.94a4.5,4.5,0,0,1-4.5,4.5h-57.6a0,0,0,0,1,0,0V100.74A0,0,0,0,1,1183.05,100.74Z" transform="translate(143.3 748.31) rotate(-38.65)"/><path class="cls-8" d="M1190.2,119.61h11.31a0,0,0,0,1,0,0v98.18a0,0,0,0,1,0,0H1190.2a6.75,6.75,0,0,1-6.75-6.75V126.36a6.75,6.75,0,0,1,6.75-6.75Z" transform="translate(123.27 740.17) rotate(-38.65)"/><path class="cls-9" d="M1192,108h57.6a4.5,4.5,0,0,1,4.5,4.5v77.94a4.5,4.5,0,0,1-4.5,4.5H1192a0,0,0,0,1,0,0V108A0,0,0,0,1,1192,108Z" transform="translate(140.71 755.47) rotate(-38.65)"/><rect class="cls-10" x="1188.58" y="132.15" width="40.65" height="3.39" transform="translate(148.63 742.79) rotate(-38.65)"/><rect class="cls-10" x="1198.42" y="138.39" width="30.49" height="2.82" transform="translate(145.96 747.07) rotate(-38.65)"/><circle class="cls-11" cx="1201.13" cy="123.28" r="18.78"/><path class="cls-12" d="M1244.53,161.84c1.25,6-.76,13.21-8.36,14.78-6.05,1.26-15.91-7.74-17.16-13.79s4.49-10.41,12.06-9.93C1237.42,148.55,1243.28,155.79,1244.53,161.84Z" transform="translate(-32.54 -41.54)"/><rect class="cls-13" x="1228.6" y="173.2" width="15.52" height="3.67" transform="translate(-42.38 212.31) rotate(-11.68)"/><path class="cls-14" d="M1241.85,166.71a15.64,15.64,0,0,0-2.78-8.29,14.5,14.5,0,0,0-2.15-2.41" transform="translate(-32.54 -41.54)"/><path class="cls-14" d="M1239,166.53a15.64,15.64,0,0,0-2.78-8.29,14.5,14.5,0,0,0-2.15-2.41" transform="translate(-32.54 -41.54)"/><path class="cls-15" d="M1165.92,130.62l-.49.46c-.18.12-.37.24-.55.38-2.52,2-3.37,5.12-1.91,6.95s4.68,1.68,7.2-.34c.18-.14.33-.3.49-.45s.37-.24.55-.38L1214,103l-5.29-6.61Z" transform="translate(-32.54 -41.54)"/><ellipse id="_Ellipse_12" data-name="&lt;Ellipse&gt;" class="cls-2" cx="1314.45" cy="195.66" rx="10.77" ry="13.06" transform="translate(861.28 1414.73) rotate(-80.01)"/><g class="cls-52"><path class="cls-2" d="M1290.24,176.87q1.47,5.17,3.13,10.3" transform="translate(-32.54 -41.54)"/><path class="cls-2" d="M1287.16,175.16l6,8.65" transform="translate(-32.54 -41.54)"/><path class="cls-2" d="M1263.72,174.33a72.32,72.32,0,0,0,12,17.12c1.33,1.4,3.45-.72,2.12-2.12a69.78,69.78,0,0,1-11.53-16.51c-.87-1.73-3.46-.21-2.59,1.51Z" transform="translate(-32.54 -41.54)"/><path class="cls-17" d="M1321.19,192.62c1.5.86,1.85,2.48,2.14,4.06.17.95,1.62.55,1.45-.4-.37-2-1-3.9-2.83-5a.75.75,0,0,0-.76,1.3Z" transform="translate(-32.54 -41.54)"/></g><path class="cls-18" d="M1316.77,185.64a6.17,6.17,0,0,0,1.11-3.22l-1.47.2a7.56,7.56,0,0,1,.31,1.56,3.84,3.84,0,0,1,0,.68,1.8,1.8,0,0,1,0,.22.29.29,0,0,1-.32.25l.52-.53a1.71,1.71,0,0,1-.71,0c-1-.13-1.35,1.31-.4,1.45a3.84,3.84,0,0,0,1.51,0,.72.72,0,0,0,.52-.52,1.18,1.18,0,0,0-1.63-1.4,1.22,1.22,0,0,0,0,2.14,1.37,1.37,0,0,0,2-1,6.43,6.43,0,0,0-.3-3.25.76.76,0,0,0-1.48.19,4.71,4.71,0,0,1-.91,2.47c-.56.79.74,1.54,1.3.75Z" transform="translate(-32.54 -41.54)"/><path class="cls-18" d="M1317.17,186.81a4.79,4.79,0,0,1,3.42,1.6c.65.72,1.71-.34,1.06-1.06a6.33,6.33,0,0,0-4.48-2,.75.75,0,0,0,0,1.5Z" transform="translate(-32.54 -41.54)"/><path class="cls-18" d="M1317.57,186.49c1.18,0,2.36-.11,3.53-.25,1-.12,1-1.62,0-1.5-1.17.14-2.35.22-3.53.25a.75.75,0,0,0,0,1.5Z" transform="translate(-32.54 -41.54)"/><path class="cls-18" d="M1316.55,184.85a3.52,3.52,0,0,1-2.54-1.6c-.52-.81-1.82-.06-1.3.76a5,5,0,0,0,3.44,2.29.78.78,0,0,0,.92-.53.75.75,0,0,0-.52-.92Z" transform="translate(-32.54 -41.54)"/><path class="cls-18" d="M1315.91,186.61a2,2,0,0,1,1.12,1.47.77.77,0,0,0,.75.75.76.76,0,0,0,.75-.75,3.55,3.55,0,0,0-1.86-2.77c-.86-.44-1.62.85-.76,1.3Z" transform="translate(-32.54 -41.54)"/><path class="cls-18" d="M1315.41,185.36c0,.06-1.35-.11-1.58-.1a9.89,9.89,0,0,0-2.09.27c-.94.21-.54,1.66.4,1.44a10.53,10.53,0,0,1,2.91-.15,1.75,1.75,0,0,0,1.66-.71c.58-.77-.72-1.52-1.3-.75Z" transform="translate(-32.54 -41.54)"/><path class="cls-19" d="M1299.43,165.34c3.15,2.12,1.07,7.49-1.65,10.14s-6.38,4.24-9,7.05c-4.32,4.73-1,15.37-8.44,18.71-5,2.26-9,.17-12.06-1-6-3.15-5.52-8.75-4.38-13.25,1.15-3.31,1.15-3.31,4.48-6.18,4.78-3.56,9.16-6.92,14.25-10a61.1,61.1,0,0,1,9.35-5.06C1295.93,164.51,1296.52,163.38,1299.43,165.34Z" transform="translate(-32.54 -41.54)"/><path class="cls-19" d="M1298.36,166.4c2.43,2.22.08,6.26-1.64,8s-4.31,3.14-6.38,4.77a12.8,12.8,0,0,0-4.62,5.9c-1,2.93-1,6.1-1.84,9.09-1.58,5.8-6.85,7.6-12.38,5.7-5.25-1.81-7.49-5.47-6.46-10.86.84-4.43,3.48-6.36,7-9,3.7-2.79,7.48-5.46,11.42-7.9,3.52-2.18,11-8,15.23-5.49a1.5,1.5,0,0,0,1.51-2.59c-4.56-2.68-9.61.49-13.79,2.81a136.3,136.3,0,0,0-19,12.92c-6.72,5.43-8.41,17.43.38,21.88,4.57,2.31,10.49,3.15,14.88,0,3.8-2.72,4.28-7.34,5-11.6.65-3.66,1.53-6.08,4.53-8.47,2.52-2,5.5-3.52,7.56-6.06,2.6-3.21,4.16-8.1.74-11.24C1299.07,163,1296.94,165.09,1298.36,166.4Z" transform="translate(-32.54 -41.54)"/><path class="cls-18" d="M1299.54,166.69l.12,4.14,2.95-.4a6.82,6.82,0,0,1-.34-3.35,1.5,1.5,0,1,0-3,0,8.75,8.75,0,0,0,.45,4.15c.54,1.52,3,1.39,2.94-.4l-.12-4.14c-.06-1.93-3.06-1.94-3,0Z" transform="translate(-32.54 -41.54)"/><path class="cls-18" d="M1300,165.31a8.93,8.93,0,0,0-2.77,3.18,1.58,1.58,0,0,0,0,1.52,1.46,1.46,0,0,0,1.3.74,3.48,3.48,0,0,0,2.22-1.06,3.39,3.39,0,0,0,.87-2.31,1.5,1.5,0,1,0-3,0c0,.29.11-.08,0,.17.16-.35-.15.3-.06.11s0-.06-.07.06c.1-.07.11-.07,0,0s-.21.08,0,.05l1.29,2.26a5.83,5.83,0,0,1,1.7-2.11,1.54,1.54,0,0,0,.54-2.05,1.53,1.53,0,0,0-2.06-.54Z" transform="translate(-32.54 -41.54)"/><path class="cls-18" d="M1301.2,164.93a6,6,0,0,0-6.12,1.19c-1.21,1,.1,2.8,1.46,2.51a8.35,8.35,0,0,1,3.19-.09,1.55,1.55,0,0,0,1.85-1,1.51,1.51,0,0,0-1-1.84,12.26,12.26,0,0,0-4.79.09l1.46,2.51a3.07,3.07,0,0,1,3.21-.43,1.5,1.5,0,0,0,1.84-1,1.54,1.54,0,0,0-1-1.85Z" transform="translate(-32.54 -41.54)"/><path class="cls-18" d="M1299.69,164.25a28.24,28.24,0,0,1-4.61-.46l.89.69c-1.07,1-1.2,1.51-.37,1.58l.36.09c.42.11.83.23,1.24.36q1.14.36,2.25.81a1.51,1.51,0,0,0,1.85-1,1.54,1.54,0,0,0-1-1.84,25.86,25.86,0,0,0-3.85-1.26c-1.25-.3-2.69-.29-3.21,1.13s.64,2.4,2,2.54,3,.27,4.51.41c1.92.17,1.91-2.83,0-3Z" transform="translate(-32.54 -41.54)"/><path class="cls-18" d="M1301.66,165.55a4,4,0,0,0-2.63-2.43c-.57-.19-2.55-.26-2.78-.92-.63-1.81-3.53-1-2.89.8a3.92,3.92,0,0,0,2.62,2.45c.54.19,2.55.27,2.79.9.67,1.79,3.57,1,2.89-.8Z" transform="translate(-32.54 -41.54)"/><path class="cls-18" d="M1300.53,166.4a4.17,4.17,0,0,0,1.82-1.18,1.51,1.51,0,0,0-1.46-2.51,2.78,2.78,0,0,0-2,3.5,1.54,1.54,0,0,0,1.84,1,1.51,1.51,0,0,0,1-1.85c-.09-.27-.08.19,0-.09,0,.05-.12.38,0,.22s-.2.12,0,0c-.08.05-.39.17-.11.11l-1.46-2.51a4.36,4.36,0,0,1-.31.31c.12-.08-.44.19-.18.1a1.52,1.52,0,0,0-1,1.84,1.5,1.5,0,0,0,1.84,1.05Z" transform="translate(-32.54 -41.54)"/></g></g></g></svg>