<svg xmlns="http://www.w3.org/2000/svg" xmlns:xlink="http://www.w3.org/1999/xlink" viewBox="0 0 285.34 285.34"><defs><style>.cls-1,.cls-4{fill:#f09a35;}.cls-1,.cls-7{stroke:#d8822b;}.cls-1,.cls-12,.cls-3,.cls-7{stroke-miterlimit:10;}.cls-2{fill:#d80919;}.cls-11,.cls-3{fill:#fff;}.cls-12,.cls-3{stroke:#869e40;}.cls-3{stroke-width:10px;}.cls-5{clip-path:url(#clip-path);}.cls-6{fill:#d8822b;}.cls-19,.cls-7{fill:none;}.cls-8{fill:#869e40;}.cls-9{fill:#d8cad0;}.cls-10{fill:#de5f6e;}.cls-12{fill:#f3f2bc;stroke-width:7px;}.cls-13{fill:#b3b3b3;}.cls-14{fill:#d8aa2a;}.cls-15{fill:#f0c948;}.cls-16{fill:#fbb03b;}.cls-17{fill:#e6e6e6;}.cls-18{fill:#ccc;}.cls-19{stroke:#b3b3b3;stroke-linecap:round;stroke-linejoin:round;stroke-width:0.25px;}.cls-20{clip-path:url(#clip-path-2);}.cls-21{fill:#f42740;}.cls-22{fill:#670f7c;}</style><clipPath id="clip-path"><path id="_Clipping_Path_" data-name="&lt;Clipping Path&gt;" class="cls-1" d="M164.63,88c-2.09,10.27-5.75,19-8.18,20-3-2.79-4.77-10.17-5.37-21.12s2.74-18.65,8.24-18.25S166.81,77.26,164.63,88Z"/></clipPath><clipPath id="clip-path-2"><ellipse id="_Ellipse_" data-name="&lt;Ellipse&gt;" class="cls-2" cx="194.14" cy="154.12" rx="10.77" ry="13.06" transform="translate(8.69 318.59) rotate(-80.01)"/></clipPath></defs><title>weekly-bowl</title><g id="Layer_2" data-name="Layer 2"><g id="Layer_1-2" data-name="Layer 1"><circle class="cls-3" cx="142.67" cy="142.67" r="137.67"/><path id="_Clipping_Path_2" data-name="&lt;Clipping Path&gt;" class="cls-4" d="M164.63,88c-2.09,10.27-5.75,19-8.18,20-3-2.79-4.77-10.17-5.37-21.12s2.74-18.65,8.24-18.25S166.81,77.26,164.63,88Z"/><g class="cls-5"><path class="cls-6" d="M152.77,27.13a25.92,25.92,0,0,0,28.51,7.78c1.82-.62,1-3.52-.79-2.9a23,23,0,0,1-25.6-7c-1.26-1.47-3.37.66-2.12,2.12Z"/><path class="cls-6" d="M155.22,77.58a12.94,12.94,0,0,0,7.89,1.11c.47-.08.27-.8-.2-.72a12.12,12.12,0,0,1-7.31-1c-.43-.21-.81.44-.38.64Z"/><path class="cls-6" d="M152.78,81.69a16.49,16.49,0,0,0,10.83,2c.48-.07.27-.79-.2-.72A15.67,15.67,0,0,1,153.16,81a.38.38,0,0,0-.38.65Z"/><path class="cls-6" d="M153,87.45a10.17,10.17,0,0,0,8.57,1.38.38.38,0,0,0-.2-.73,9.37,9.37,0,0,1-8-1.3c-.4-.27-.78.38-.38.65Z"/><path class="cls-6" d="M154.16,93.68a14.27,14.27,0,0,0,5.28,1.08.38.38,0,0,0,0-.75A13.91,13.91,0,0,1,154.35,93c-.44-.18-.64.54-.19.72Z"/><path class="cls-6" d="M158.34,70.69a11,11,0,0,0,2.53.82,2,2,0,0,0,2.21-1.68c.12-1.26-.88-1.93-2-2a20.78,20.78,0,0,0-2.49-.14A1.87,1.87,0,0,0,157,70.1a2.48,2.48,0,0,0,2,1.68,3.51,3.51,0,0,0,2.56-.35,2.47,2.47,0,0,0,1.07-2.67,1.5,1.5,0,0,0-2.89.8c-.22-1.1.12-.24.36-.71,0,.08-.21,0-.24,0-.3,0,.28,0-.24,0l-.18,0a.86.86,0,0,1,.47.87l-.38.66.09-.11-1.06.44,1.36.08.67,0h.23c.42,0,.31,0-.34-.22l-.38-.66,0,.12v-.8l.37-.51.76-.2a2.91,2.91,0,0,1-1-.31l-1.16-.41a1.5,1.5,0,0,0-.8,2.89Z"/></g><path id="_Clipping_Path_3" data-name="&lt;Clipping Path&gt;" class="cls-7" d="M164.63,88c-2.09,10.27-5.75,19-8.18,20-3-2.79-4.77-10.17-5.37-21.12s2.74-18.65,8.24-18.25S166.81,77.26,164.63,88Z"/><path class="cls-8" d="M160.39,68.52l-5.08-30c-.24-1.43-2.41-.82-2.17.6l5.09,30c.24,1.42,2.41.82,2.16-.6Z"/><path class="cls-8" d="M161.29,68.15a179.11,179.11,0,0,0-1.67-19.5c-.2-1.43-2.37-.82-2.17.59A173.66,173.66,0,0,1,159,68.15c0,1.44,2.29,1.45,2.25,0Z"/><path class="cls-8" d="M162.8,67.32a149,149,0,0,0,5.92-25.79c.2-1.42-2-2-2.17-.6a149,149,0,0,1-5.92,25.79c-.45,1.38,1.72,2,2.17.6Z"/><path class="cls-8" d="M162.68,65.8a142.27,142.27,0,0,1,.39-16.52c.12-1.45-2.13-1.44-2.25,0a142.27,142.27,0,0,0-.39,16.52c0,1.44,2.3,1.45,2.25,0Z"/><path class="cls-8" d="M161.69,69.83c3-6.79,10-10.56,13.58-17,.71-1.26-1.24-2.4-1.94-1.13-3.58,6.45-10.54,10.18-13.58,17-.59,1.31,1.35,2.45,1.94,1.13Z"/><path class="cls-9" d="M220.43,125c2.37-4.59,3.63-5.15,5.75-10.44,1.72-4.34,2.9-9.18,1.54-13.64-1-3.31-3.3-6.06-5.75-8.49-5.86-5.84-13.1-10.5-21.16-12.36-6.2-1.43-13.68-.71-17.44,4.42-2.6,3.55-2.73,8.54-1,12.58a21.21,21.21,0,0,0,8.89,9.48c2.4,1.43,5,2.57,7.06,4.49,2.62,2.47,4,6,5.48,9.22s3.56,6.58,6.84,8S218.61,128.54,220.43,125Z"/><path class="cls-10" d="M218.75,122.83c2.13-4.13,3.27-4.63,5.17-9.4,1.56-3.91,2.62-8.27,1.4-12.29-.91-3-3-5.44-5.18-7.64-5.28-5.26-11.8-9.46-19.06-11.13-5.58-1.29-12.32-.63-15.7,4-2.35,3.2-2.46,7.69-.9,11.33a19.09,19.09,0,0,0,8,8.54c2.17,1.29,4.53,2.31,6.36,4,2.36,2.23,3.55,5.37,4.93,8.3s3.21,5.93,6.17,7.24A7,7,0,0,0,218.75,122.83Z"/><circle class="cls-9" cx="212.97" cy="117.57" r="2.18"/><path class="cls-8" d="M147.23,173.24c-45,0-82-3.29-86.45-7.51a62.31,62.31,0,0,0-.46,7.51c0,40.48,38.92,73.3,86.91,73.3s86.91-32.82,86.91-73.3a62.31,62.31,0,0,0-.45-7.51C229.23,170,192.22,173.24,147.23,173.24Z"/><path class="cls-11" d="M234.14,165.56a1.45,1.45,0,0,0-.72-1.08c.1.65.19,1.29.27,1.94A1.2,1.2,0,0,0,234.14,165.56Z"/><path class="cls-11" d="M60.32,165.56a1.22,1.22,0,0,0,.46.86c.08-.65.17-1.29.26-1.94A1.48,1.48,0,0,0,60.32,165.56Z"/><path class="cls-12" d="M232.29,166.42c-.07-.65-.16-1.29-.26-1.94-5.4-4.11-41.24-7.29-84.65-7.29s-79.25,3.18-84.65,7.29c-.1.65-.19,1.29-.26,1.94,4.38,4.23,40.72,7.52,84.91,7.52S227.91,170.65,232.29,166.42Z"/><path class="cls-8" d="M116.2,240.86h58a0,0,0,0,1,0,0v2.9a2.78,2.78,0,0,1-2.78,2.78H119a2.78,2.78,0,0,1-2.78-2.78v-2.9A0,0,0,0,1,116.2,240.86Z"/><path class="cls-13" d="M211.58,168.74l-6.5.51L243,123.73c.8-.93,3-.59,3.88.2h0c.92.8,1.76,2.89,1,3.81Z"/><path class="cls-14" d="M62.74,59.2h57.6a4.5,4.5,0,0,1,4.5,4.5v77.94a4.5,4.5,0,0,1-4.5,4.5H62.74a0,0,0,0,1,0,0V59.2a0,0,0,0,1,0,0Z" transform="translate(-43.58 81.06) rotate(-38.65)"/><path class="cls-14" d="M69.88,78.07H81.2a0,0,0,0,1,0,0v98.18a0,0,0,0,1,0,0H69.88a6.75,6.75,0,0,1-6.75-6.75V84.82a6.75,6.75,0,0,1,6.75-6.75Z" transform="translate(-63.61 72.92) rotate(-38.65)"/><path class="cls-15" d="M71.64,66.46h57.6a4.5,4.5,0,0,1,4.5,4.5v77.94a4.5,4.5,0,0,1-4.5,4.5H71.64a0,0,0,0,1,0,0V66.46A0,0,0,0,1,71.64,66.46Z" transform="translate(-46.17 88.22) rotate(-38.65)"/><rect class="cls-16" x="68.26" y="90.61" width="40.65" height="3.39" transform="translate(-38.24 75.54) rotate(-38.65)"/><rect class="cls-16" x="78.11" y="96.84" width="30.49" height="2.82" transform="translate(-40.92 79.82) rotate(-38.65)"/><circle class="cls-10" cx="113.36" cy="123.28" r="18.78"/><path class="cls-17" d="M124.22,120.3c1.25,6-.77,13.21-8.37,14.78-6,1.25-15.91-7.74-17.16-13.79s4.49-10.42,12.06-9.93C117.1,107,123,114.25,124.22,120.3Z"/><rect class="cls-18" x="108.28" y="131.66" width="15.52" height="3.67" transform="translate(-24.62 26.25) rotate(-11.68)"/><path class="cls-19" d="M121.54,125.17a15.61,15.61,0,0,0-2.79-8.3,14.81,14.81,0,0,0-2.15-2.4"/><path class="cls-19" d="M118.67,125a15.7,15.7,0,0,0-2.79-8.3,14.81,14.81,0,0,0-2.15-2.4"/><path class="cls-11" d="M45.61,89.08a4.29,4.29,0,0,0-.49.46,5,5,0,0,0-.56.38c-2.51,2-3.37,5.12-1.91,7s4.69,1.67,7.2-.34c.18-.14.33-.3.5-.46a4.53,4.53,0,0,0,.55-.38L93.7,61.47l-5.29-6.62Z"/><ellipse id="_Ellipse_2" data-name="&lt;Ellipse&gt;" class="cls-2" cx="194.14" cy="154.12" rx="10.77" ry="13.06" transform="translate(8.69 318.59) rotate(-80.01)"/><g class="cls-20"><path class="cls-2" d="M169.92,135.33q1.47,5.17,3.13,10.3"/><path class="cls-2" d="M166.84,133.61l6,8.65"/><path class="cls-2" d="M143.4,132.79a72.6,72.6,0,0,0,12,17.11c1.32,1.41,3.44-.71,2.12-2.12A69.62,69.62,0,0,1,146,131.27c-.87-1.72-3.45-.2-2.59,1.52Z"/><path class="cls-21" d="M200.87,151.07c1.51.86,1.85,2.48,2.14,4.06.18,1,1.62.55,1.45-.39-.36-2-1-3.9-2.83-5a.75.75,0,0,0-.76,1.29Z"/></g><path class="cls-8" d="M196.45,144.1a6.13,6.13,0,0,0,1.12-3.22l-1.48.2a6.87,6.87,0,0,1,.31,1.55,3.91,3.91,0,0,1,0,.68.78.78,0,0,1,0,.22.28.28,0,0,1-.32.25l.53-.52a2,2,0,0,1-.72,0c-.94-.14-1.35,1.31-.4,1.45a4.25,4.25,0,0,0,1.51,0,.76.76,0,0,0,.53-.53,1.17,1.17,0,0,0-1.63-1.39,1.22,1.22,0,0,0,0,2.13,1.37,1.37,0,0,0,2-1,6.44,6.44,0,0,0-.31-3.25.75.75,0,0,0-1.47.2,4.68,4.68,0,0,1-.91,2.46c-.56.79.74,1.54,1.29.76Z"/><path class="cls-8" d="M196.85,145.27a4.72,4.72,0,0,1,3.42,1.6c.65.71,1.71-.35,1.06-1.06a6.29,6.29,0,0,0-4.48-2c-1,0-1,1.46,0,1.5Z"/><path class="cls-8" d="M197.26,144.94a31.86,31.86,0,0,0,3.52-.25c.95-.11,1-1.61,0-1.5a31.86,31.86,0,0,1-3.52.25.75.75,0,0,0,0,1.5Z"/><path class="cls-8" d="M196.23,143.31a3.54,3.54,0,0,1-2.54-1.6c-.51-.82-1.81-.07-1.29.75a4.93,4.93,0,0,0,3.43,2.29.79.79,0,0,0,.93-.52.75.75,0,0,0-.53-.92Z"/><path class="cls-8" d="M195.6,145.06a2,2,0,0,1,1.11,1.48.78.78,0,0,0,.75.75.76.76,0,0,0,.75-.75,3.51,3.51,0,0,0-1.86-2.77c-.85-.44-1.61.85-.75,1.29Z"/><path class="cls-8" d="M195.1,143.81c0,.06-1.35-.1-1.59-.1a10.4,10.4,0,0,0-2.08.27c-.94.22-.55,1.67.4,1.45a10.12,10.12,0,0,1,2.91-.15,1.75,1.75,0,0,0,1.65-.71c.58-.77-.72-1.52-1.29-.76Z"/><path class="cls-22" d="M179.11,123.79c3.16,2.13,1.08,7.49-1.65,10.15s-6.38,4.24-8.94,7.05c-4.33,4.72-1,15.37-8.45,18.7-5,2.27-9,.18-12.06-1-6-3.16-5.52-8.76-4.38-13.26,1.15-3.31,1.15-3.31,4.48-6.18,4.79-3.55,9.16-6.92,14.26-10a61.86,61.86,0,0,1,9.34-5.06C175.62,123,176.21,121.84,179.11,123.79Z"/><path class="cls-22" d="M178.05,124.85c2.42,2.22.07,6.27-1.65,8s-4.31,3.13-6.37,4.77a12.73,12.73,0,0,0-4.62,5.9c-1,2.93-1,6.1-1.85,9.08-1.58,5.81-6.85,7.61-12.38,5.7-5.24-1.81-7.49-5.46-6.46-10.86.85-4.42,3.48-6.36,7-9,3.7-2.79,7.48-5.46,11.42-7.9,3.53-2.18,11-8,15.23-5.49a1.5,1.5,0,0,0,1.52-2.59c-4.57-2.68-9.61.48-13.79,2.81a135.26,135.26,0,0,0-19,12.92c-6.71,5.42-8.4,17.42.39,21.87,4.56,2.31,10.48,3.15,14.87,0,3.81-2.72,4.28-7.34,5-11.61.65-3.65,1.53-6.08,4.53-8.46,2.52-2,5.49-3.52,7.55-6.06,2.61-3.22,4.17-8.11.74-11.25C178.75,121.43,176.62,123.55,178.05,124.85Z"/><path class="cls-8" d="M179.23,125.14l.12,4.15,2.94-.4a7.07,7.07,0,0,1-.34-3.35,1.5,1.5,0,0,0-1.5-1.5,1.54,1.54,0,0,0-1.5,1.5,9,9,0,0,0,.45,4.15c.54,1.51,3,1.38,2.95-.4l-.12-4.15c-.06-1.92-3.06-1.93-3,0Z"/><path class="cls-8" d="M179.68,123.77a8.83,8.83,0,0,0-2.77,3.18,1.51,1.51,0,0,0,0,1.51,1.48,1.48,0,0,0,1.29.75,3.4,3.4,0,0,0,2.22-1.07,3.3,3.3,0,0,0,.87-2.3,1.5,1.5,0,0,0-3,0c0,.29.11-.09,0,.16.17-.34-.14.31-.06.11l-.07.07c.1-.07.11-.08,0,0s-.2.08,0,0l1.3,2.25a5.77,5.77,0,0,1,1.69-2.1,1.54,1.54,0,0,0,.54-2,1.51,1.51,0,0,0-2-.54Z"/><path class="cls-8" d="M180.89,123.39a6,6,0,0,0-6.13,1.19c-1.21,1,.11,2.8,1.46,2.51a8.61,8.61,0,0,1,3.2-.1,1.53,1.53,0,0,0,1.84-1,1.52,1.52,0,0,0-1-1.85,12.65,12.65,0,0,0-4.79.09l1.45,2.51a3,3,0,0,1,3.21-.42,1.5,1.5,0,1,0,.8-2.89Z"/><path class="cls-8" d="M179.37,122.7a28.35,28.35,0,0,1-4.61-.45l.9.69c-1.08,1-1.2,1.5-.37,1.58l.36.09c.41.11.82.22,1.23.35.77.24,1.51.52,2.25.82a1.53,1.53,0,0,0,1.85-1,1.54,1.54,0,0,0-1-1.85,28.73,28.73,0,0,0-3.84-1.26c-1.25-.29-2.7-.29-3.22,1.14s.65,2.39,2,2.53c1.5.16,3,.28,4.51.41,1.92.18,1.91-2.82,0-3Z"/><path class="cls-8" d="M181.35,124a3.92,3.92,0,0,0-2.64-2.43c-.56-.2-2.54-.27-2.77-.92-.64-1.81-3.54-1-2.89.8a3.89,3.89,0,0,0,2.61,2.44c.55.19,2.56.27,2.79.91.67,1.79,3.57,1,2.9-.8Z"/><path class="cls-8" d="M180.22,124.86a4.17,4.17,0,0,0,1.82-1.18,1.52,1.52,0,0,0-1.46-2.51,2.78,2.78,0,0,0-2,3.5,1.54,1.54,0,0,0,1.85,1,1.52,1.52,0,0,0,1.05-1.84c-.1-.27-.09.19,0-.09,0,0-.11.37,0,.22s-.21.12,0,0c-.08.06-.4.18-.11.11l-1.46-2.5c-.07.08-.32.32-.31.31s-.45.19-.19.1a1.54,1.54,0,0,0-1,1.84,1.52,1.52,0,0,0,1.85,1Z"/></g></g></svg>