<svg xmlns="http://www.w3.org/2000/svg" xmlns:xlink="http://www.w3.org/1999/xlink" viewBox="0 0 512 512"><defs><style>.cls-1{fill:none;}.cls-2{clip-path:url(#clip-path);}.cls-3{fill:#f4f2f2;}.cls-4{fill:#2d909c;}.cls-5{fill:#2d535b;}</style><clipPath id="clip-path" transform="translate(0)"><rect class="cls-1" width="512" height="512"/></clipPath></defs><title>brush-grey</title><g id="Layer_2" data-name="Layer 2"><g id="Layer_1-2" data-name="Layer 1"><g class="cls-2"><circle class="cls-3" cx="256" cy="256" r="256"/></g><g class="cls-2"><path class="cls-4" d="M210.8,324.4c-20.4,0-22.8,1.6-22.8-22.8s175.6-164,175.6-164l10,1.2S231.2,324.4,210.8,324.4Z" transform="translate(0)"/></g><path class="cls-5" d="M198.34,314c-10-10-28.35-7.81-38.33,2.17a32.39,32.39,0,0,0-7.75,13.1c7.08,7,21,28.41,48.6,16.81C206.54,335.87,206.49,322.14,198.34,314Z" transform="translate(0)"/><path class="cls-4" d="M134.39,356c9.25,9.26,45.47,11.86,63-5.7a28.93,28.93,0,0,0,4.74-6.33c-27.48-.82-42-10-49.18-17C149.84,336.16,146.81,347.72,134.39,356Z" transform="translate(0)"/></g></g></svg>