<svg xmlns="http://www.w3.org/2000/svg" xmlns:xlink="http://www.w3.org/1999/xlink" viewBox="0 0 469.33 469.33"><defs><style>.cls-1{fill:none;}.cls-2{clip-path:url(#clip-path);}.cls-3,.cls-7{fill:#fff;}.cls-4{fill:#2d909c;}.cls-5,.cls-6{fill:#2d535b;}.cls-6{stroke:#2d535b;stroke-miterlimit:10;stroke-width:6px;}.cls-7{font-size:96px;font-family:Lato-Bold, Lato;font-weight:700;}.cls-8{letter-spacing:-0.04em;}</style><clipPath id="clip-path" transform="translate(-21.33 -21.33)"><rect class="cls-1" width="512" height="512"/></clipPath></defs><title>cv-white</title><g id="Layer_2" data-name="Layer 2"><g id="Layer_1-2" data-name="Layer 1"><g class="cls-2"><circle class="cls-3" cx="234.67" cy="234.67" r="234.67"/></g><path class="cls-4" d="M345,110.5H191.89l-34.38,28V392a9.5,9.5,0,0,0,9.5,9.5H345a9.5,9.5,0,0,0,9.5-9.5V120A9.5,9.5,0,0,0,345,110.5Z" transform="translate(-21.33 -21.33)"/><polygon class="cls-5" points="136.16 117.12 170.54 117.16 170.57 89.18 136.16 117.12"/><line class="cls-6" x1="159.17" y1="140.17" x2="307.67" y2="140.17"/><line class="cls-6" x1="159.17" y1="157.17" x2="307.67" y2="157.17"/><line class="cls-6" x1="160.42" y1="174.17" x2="308.92" y2="174.17"/><line class="cls-6" x1="159.17" y1="191.17" x2="307.67" y2="191.17"/><line class="cls-6" x1="160.42" y1="208.17" x2="308.92" y2="208.17"/><line class="cls-6" x1="160.42" y1="225.17" x2="308.92" y2="225.17"/><line class="cls-6" x1="160.42" y1="242.17" x2="308.92" y2="242.17"/><line class="cls-6" x1="160.42" y1="259.17" x2="308.92" y2="259.17"/><line class="cls-6" x1="160.42" y1="276.17" x2="308.92" y2="276.17"/><line class="cls-6" x1="160.42" y1="293.17" x2="308.92" y2="293.17"/><line class="cls-6" x1="160.42" y1="310.17" x2="308.92" y2="310.17"/><line class="cls-6" x1="160.42" y1="327.17" x2="308.92" y2="327.17"/><line class="cls-6" x1="159.17" y1="344.17" x2="307.67" y2="344.17"/><text class="cls-7" transform="translate(169.32 262.34)">C<tspan class="cls-8" x="63.5" y="0">V</tspan></text></g></g></svg>