<svg xmlns="http://www.w3.org/2000/svg" xmlns:xlink="http://www.w3.org/1999/xlink" viewBox="0 0 469.33 469.33"><defs><style>.cls-1{fill:none;}.cls-2{clip-path:url(#clip-path);}.cls-3{fill:#fff;}.cls-4{fill:#2d909c;}</style><clipPath id="clip-path" transform="translate(-21.33 -21.33)"><rect class="cls-1" width="512" height="512"/></clipPath></defs><title>cv-white_1</title><g id="Layer_2" data-name="Layer 2"><g id="Layer_1-2" data-name="Layer 1"><g class="cls-2"><circle class="cls-3" cx="234.67" cy="234.67" r="234.67"/></g><path class="cls-4" d="M234.21,296.73a5.64,5.64,0,0,1,4.1,1.78l11.13,12.08a61.15,61.15,0,0,1-22.73,17.53q-13.5,6.09-32.4,6.09a76.49,76.49,0,0,1-30.39-5.77,67,67,0,0,1-23-16.07,70.26,70.26,0,0,1-14.65-24.57,92.07,92.07,0,0,1-5.09-31.18,86.87,86.87,0,0,1,5.46-31.35A72.12,72.12,0,0,1,142,200.76a69.67,69.67,0,0,1,23.68-16A78.62,78.62,0,0,1,196.1,179q16.59,0,29.45,5.46a70.21,70.21,0,0,1,21.89,14.28L238,211.89a8.63,8.63,0,0,1-2.15,2.2,6.1,6.1,0,0,1-3.62.95,6.9,6.9,0,0,1-3.26-.9c-1.12-.59-2.34-1.32-3.67-2.2s-2.87-1.84-4.62-2.89a38.46,38.46,0,0,0-6.09-2.89,49.69,49.69,0,0,0-8-2.2,55.85,55.85,0,0,0-10.55-.89,46.69,46.69,0,0,0-18.63,3.62,40.48,40.48,0,0,0-14.55,10.5,48.31,48.31,0,0,0-9.45,16.8A70.4,70.4,0,0,0,150,256.62a66.36,66.36,0,0,0,3.63,22.78,50,50,0,0,0,9.81,16.8A42,42,0,0,0,178,306.65a45.2,45.2,0,0,0,18.06,3.62,78.5,78.5,0,0,0,10.44-.63,44.46,44.46,0,0,0,8.62-2,38.76,38.76,0,0,0,7.45-3.52,46,46,0,0,0,7-5.3,10.19,10.19,0,0,1,2.21-1.53A5.37,5.37,0,0,1,234.21,296.73Z" transform="translate(-21.33 -21.33)"/><path class="cls-4" d="M399,180.7,337.64,332.53H312.12L250.8,180.7h22.68a9.53,9.53,0,0,1,6,1.79,10.91,10.91,0,0,1,3.46,4.62l35.81,92.61q1.78,4.51,3.41,9.92t3.1,11.29q1.26-5.88,2.73-11.29a94.73,94.73,0,0,1,3.25-9.92l35.6-92.61a9.91,9.91,0,0,1,3.31-4.41,9.27,9.27,0,0,1,6-2Z" transform="translate(-21.33 -21.33)"/><text x="-21.33" y="-21.33"></text></g></g></svg>