<svg xmlns="http://www.w3.org/2000/svg" xmlns:xlink="http://www.w3.org/1999/xlink" viewBox="0 0 469.33 469.33"><defs><style>.cls-1{fill:none;}.cls-2{clip-path:url(#clip-path);}.cls-3{fill:#fff;}.cls-4{fill:#2d909c;}</style><clipPath id="clip-path" transform="translate(-21.33 -21.33)"><rect class="cls-1" width="512" height="512"/></clipPath></defs><title>github-white</title><g id="Layer_2" data-name="Layer 2"><g id="Layer_1-2" data-name="Layer 1"><g class="cls-2"><circle class="cls-3" cx="234.67" cy="234.67" r="234.67"/></g><g class="cls-2"><path class="cls-4" d="M305.34,404.08c0-6,.21-25.74.21-50.23,0-17.08-5.85-28.22-12.41-33.9,40.75-4.53,83.57-20,83.57-90.31,0-20-7.1-36.31-18.83-49.13,1.9-4.61,8.16-23.23-1.8-48.44,0,0-15.35-4.92-50.28,18.77a173.6,173.6,0,0,0-91.67,0c-35-23.69-50.35-18.77-50.35-18.77-9.94,25.21-3.67,43.83-1.77,48.44-11.71,12.82-18.86,29.15-18.86,49.13,0,70.13,42.74,85.83,83.39,90.46-5.23,4.57-10,12.64-11.62,24.47-10.45,4.68-36.94,12.77-53.26-15.21,0,0-9.68-17.57-28.06-18.87,0,0-17.86-.23-1.25,11.13,0,0,12,5.62,20.32,26.78,0,0,10.74,32.67,61.67,21.6.07,15.29.24,29.71.24,34.08a10,10,0,0,1-1.09,4.58,170.46,170.46,0,0,0,93.95,1.57A9.54,9.54,0,0,1,305.34,404.08Z" transform="translate(-21.33 -21.33)"/></g></g></g></svg>