<svg xmlns="http://www.w3.org/2000/svg" xmlns:xlink="http://www.w3.org/1999/xlink" viewBox="0 0 469.33 469.33"><defs><style>.cls-1{fill:none;}.cls-2{clip-path:url(#clip-path);}.cls-3{fill:#f4f2f2;}.cls-4{fill:#2d909c;}</style><clipPath id="clip-path" transform="translate(-21.33 -21.33)"><rect class="cls-1" width="512" height="512"/></clipPath></defs><title>linkedin-white_1</title><g id="Layer_2" data-name="Layer 2"><g id="Layer_1-2" data-name="Layer 1"><g class="cls-2"><circle class="cls-3" cx="234.67" cy="234.67" r="234.67"/></g><g class="cls-2"><path class="cls-4" d="M146.59,200.93V356.59h51.89V200.93Zm178.94-3.63C298,197.3,285.84,212.38,279,223v.48h-.48c.08-.13.4-.35.48-.48V200.93H227.09c.68,14.62,0,155.66,0,155.66H279v-87c0-4.65.33-9.28,1.7-12.61,3.74-9.3,12.13-18.91,26.43-18.91,18.73,0,26.43,14.22,26.43,35.16v83.4h51.64V267.37C385.17,219.53,359.59,197.3,325.53,197.3ZM172.78,125.77c-17.72,0-29.34,11.63-29.34,26.91,0,15,11.23,26.68,28.61,26.68h.24c18.06,0,29.34-11.72,29.34-26.68C201.29,137.4,190.49,125.77,172.78,125.77Z" transform="translate(-21.33 -21.33)"/></g></g></g></svg>